<svg id="Layer_1" data-name="Layer 1" xmlns="http://www.w3.org/2000/svg" viewBox="0 0 256 201.13"><defs><style>.cls-1{fill:#fff;}.cls-2{fill:#6366f1;}.cls-3,.cls-4,.cls-5{fill:none;}.cls-3{stroke:#6366f1;stroke-miterlimit:10;stroke-width:1.52px;}.cls-4{stroke:gray;stroke-opacity:0.47;stroke-width:0.3px;}.cls-5{stroke:#fff;stroke-width:0.6px;}.cls-6{fill:#999;}.cls-7{fill:#ccc;}.cls-8{fill:#e6e6e6;}</style></defs><title>AmetSat03</title><path id="path5137" class="cls-1" d="M228.91,113.1a96.87,96.87,0,0,0-21.73-78.8C188.92,12.7,160.74-.22,132.44.43,102.41.5,73,15.79,55.49,40.22a96.6,96.6,0,1,0,171.85,80.23,65.14,65.14,0,0,0,1.48-6.82"/><path id="path6363" class="cls-2" d="M138.44.13l-.45,0,.22,0Zm-.45,0-.42-.07-.2.06Zm1.93.22h-.65l.21,0-.55,0,.12-.09h-.36l-.06-.09-.29.07h-1.46l.24-.08h.54l-.86,0-.47,0h1l-.6-.1-.22.07-.21,0-.11,0-.11,0h-.11V0l-.22.07h0l-.1,0-.32,0-.17.06H135l-.11,0-.21,0-.44,0L134,0l-.55,0,.11,0,.21,0h1l-.08,0h-1.48l.34,0h-.38l.17,0-.11,0h-.66l.11,0-.12,0h.33l.11,0h-.5l.06,0h-.31l.11,0h-.51L132,0l-.55,0-.46,0-.09,0-.07,0-.37,0h0l-.41,0-.22,0-.09,0-.9,0,.11,0-.33,0-.11,0-.12.09-.22,0h-.65l-.45,0-.54,0-.23.07h.55l-.34,0,.78-.08-.24.07-.32,0-1.81.35-.86,0,.43.07L122.6,1l-.68.21-.21,0-.79.09h.66l-.28,0h0l-.89.09,0,.1.56-.12h0l.31.05-.77.08.42.08-.76,0,.09.12-.11,0-.81.31.17-.31-.45,0-.58.22.43.07-1.47.3.21,0h-.51l-.62.24-.19-.15-.78.09.86,0h-.55l-.25.18-1,0,.82-.07-.33,0h.54l-.17-.25-.15.2-.08-.13-.93.23H114l.4.18-.86,0,0,.21h-.64l.06.09,1-.12,0,.11-1.56.17-.77.08-.43.23H111l.21,0-.67.2-.35.07-.71.31,1.13-.24.7-.21-1,.48,0-.21-.12.1-.79.08.43.07-.54,0,0,.1-.55,0,.19.14-.43,0,.2,0-.33.06.09.12-.8.19.67-.1-1,.26,0,.11-.58.23.44,0-.68.1h.55l-.57.12.11,0-.33,0,.32.06-.55,0,.32,0-.6.33,1.43-.07-1,.25.67-.1-.9.18.55,0-.47.25.45-.14-.83.4.69-.21.07.23.18-.4.63.1,0-.22.67-.1.1,0,0-.21.54,0-.08-.12.53.09-.19-.15.66-.1.38-.26.09.12.15-.3h.66l.47-.24,0,.21.37-.26.09.12,0-.11.55,0,0-.21.2.15.58-.23-.19-.15.53.09.84-.5.08.12.68-.11.23-.06H116l1.26-.33.09.13-.4.09-.18.13,1,0,.24-.17.3.16,2.49-.56.76,0,.71-.32-.38.27.74.12.36-.15,0,.09,1.83.1,3.32-.31.22,0-1-.38h-1.2l-.23.07-.09-.13-.21,0h1.3l-.53-.09L125.86,3l1.34-.2.2.14.86,0-.8-.35.62.1L128,2.5l.69.44-.52.46.88-.07-.45.14.42.07.26-.28.68-.1-.32-.06.56-.12h-.65l.67-.12L130,2.61l-.66.1.36-.15.3,0,.12,0,0-.21-.77.08,0-.21,1.18.09-.84-.14h.55V2.12l.09.12.75,0,.15-.19,0,.21.36,0,.15.22,1,0,.45,0-.3-.16-.55,0,.23-.08.79-.19.39.28h.55l-.32-.06-.19-.14L134.3,2l.1,0-.19-.15.41.18.1,0,.68-.1-.21,0-.41-.18.86,0-.53-.09.25-.18,1,.16.53.09.45-.14-.32,0-.19-.14.42.07.32.06-.08-.13-.11,0h-.66l.57-.14h1.31l1.64-.05-.75-.13-.21,0,.34,0,.21,0,.32,0,0,0,.93.08-.84-.14,1.49.15,1.1,0-.64-.11h-.76L141,1,139.18.9l2.06,0L139.63.76l1,.05L139.12.56h.66l1.06.18L142,.84l-.63-.11h.54L140,.5l.86,0-1.18-.1.23-.06ZM131.1,2.26h-.64l.83.24Zm-4.71.83,1.29.12.25-.18ZM117,4.28l.07,0-.12.06Zm0,0-.35.07,0,.11Zm-4-1-.1,0,.12,0,0,0Zm-.1,0-.19,0-.09.06Zm-.28,0-.48.06.44,0Zm51.31,1.52,1.32.55.52.19-.09-.11-.73-.24Zm1.84.74-.32,0,.62.22.11,0-.3-.17ZM157.93,4l-.24.17h.64Zm2.44.41-.34,0-.11,0,.51.2Zm-10.08-1.6v.11l-.53-.09.27.26.45,0,.53.09-.55,0,1.14.3.89-.07-.73-.23-.42-.07-.09-.13-.14.19-.62-.19h0l-.11,0-.09-.13ZM165.72,5.5l.61.32,1.12.41.32,0-.3-.15-.15,0-.43-.17,0,0h0l-.48-.2-.52-.19.31.16-.42-.18ZM148.67,2.72l-1.08-.07.56.53.78-.09,0,.11.45,0-.48-.41-.25.18-.51-.2Zm.69.45.3.16-1.42,0,.08.12,1.08.07h-.76l.42.17-.74-.23,1,.6.88-.61.31.05.44,0-.51-.19-.51-.2-.23.07-.28-.27Zm1.14.3.3.16.22-.07Zm.3.16,0,.33h.55l.08.12.45,0-.49-.31ZM167.07,6l.6.26.05,0,1.48.62-.71-.33-.51-.2L167.07,6Zm2.64,1.1,1.83.74-.1,0,.37.18h-.07l.2.07.2.1-.4-.17-.11,0,.3.15.37.39.7.34-.51-.19,1.72.83-.87,0,1.6.82,1.22.53-.21,0-.49-.16,0,0-.2,0-.82-.35,0,.11.61.31-.58-.09-1.56-.81.9.48.46.51,1.31.66.69.43.85.69h.66l.91.37,1,.6.38.39.7.34-.81-.35-1.68-1-.33.06,1.27.86.77,1.22-1.64-.61.78-.08L178,13l-1-.5-1.17-.86-1.09-.61-1-.5-1.16-.84-.62-.22-.64-.11,1.17.85.05.33,1.18.74.58.43.42.07,1.12.52.55.64-2.23-1,.43.08-3-.94,0,.21,1.2.64-.43-.07.1.12.17.24-1-.6-.35.16-.95-.16.16.35-.42-.07-.49.25,1.57,1.68,1.17.2-1.19-.1-1.65-1.8.59-.23-.43-.07-.35-.49.34-.06-.32,0-.18.4-.29-.26-1.44.2.5.3-.64-.11.34.49-.85,0-1-.61.67-.11-.29-.26L164,10.54l.71.34,1.34,1.76-1.44-.58-.68.22-.25.17-.12.09.36.38.57.54-.3-.16L163,13l-.23.06.15-.19-1.14-.4,0,.32,1.22.52-.29.39-2-.88-.63-.77.26-.28L159,11.23l.34-.06L158,10.52,162.89,12l.35-.16.5-.35-1.18-.74-.2-.15-3.05-1.27-.95-.16-.17.3.06-.32L157.51,9l-.18-.24.64.11-.73-.24-.34.16-.61-.32-.33.06-.5-.31-.19-.14.93.26.36-.15-1.23-.43-.46.14.26-.28-.51-.19-.18.4-.32-.06,0-.33-.62.44.28-.39L153,7.27l-.52.45h-.1l-1-.28.19.13.17.26-.49-.31-.7.32-.11,0,.13-.09.15-.3-.25.19-.14.19.05-.32-.44,0,.27.36-.81-.35-.3.49-.76,0h-.11l0,.43L148,8.05l-.45,0,.3.16-.63-.1.59.31-1,0,.72.24-1.4-.14.31.17-.65.28-.37,0,.27.27-.29-.15-.62.43h.65l-1.22.12.63.11h-.64l.27.26h-.55l-.06-.23-1.29.54.11,0,.52.09.81-.29-.5.45-.87,0,0-.22-1-.05-.09.53-.5-.3.38.39-.49-.18-1.31-.12L140,11l-.25.17-.4-.18.19.15-.83-.26,0,.22-.26.28.53.09h-.66l.53.09-.45.14,1.07.08.23-.08.4.28.26-.28.06.24-.68.2-.17-.25-1.4-.12.4.17L138,11.8l.18.26.44,0-.69.21.17.25.36-.16-.39.37,1.58-.28-2,.42.27.37.9-.18-.82.31.64.1-.35.16-.5-.3-.17.4,1,.71,1.08.08,1.41-.63.74.12.54-.67v1.41l.44,0-.29.38.48-.25-.41.48.78,1.22-.47.15.08.87,1.27.22.63-.54,1.06.18,1-1-.06-1,.43.07-.62-.22h1.2l.16-.3.16.35.7-.31-.51-.2.89-.06-.83-.9-.62-.22.72-1.73.29.26,1.48-.4.44,0,.73-.42-.31-.71.4.18,0-.45.49.31.17-.3,1.25.31.76.68-3.14,1.21.57,1.07-.33.72.89.47.45,0-.18.4H157l0,.34,1.54.59-1.82-.2-.16.3-1.87-.53-1.76.13.18.79.75.13-.16,1-.69.21-.93-.93-.76,0-.69.86.17,1.56-.74-.12.54-.67-.52.56-.55,0,0,.21,0,.11.11,0,.31.05-.32.05-.7.21.49-.35-1,.15-.76-.68-3.32.32-.17.41-1.34-1.1-2.19.06.39-.36-1-.07-.55-.63.44-.69,1.5-.5-.71-.34.8-.85-2,.21-1.11,2.1.34-.06.24.49h-.54l.93.92-1-.49-.31.49-.36-.39-1-.05.26.36-1.46-.35-.69.21.24.47-.68.22-.21-.7-1.12.8.48.4-1.29-.11.7.34-2.94.05-.23.72-.46.15-1.72.47-1.82-.86v1.31l-1.51-.14-.13-.47-2,.11.47.4-.51-.19,0,.55,1.84.74,0,1.09.7.34-.54.68.06.22-1.79,2.21-6-1-.46-.52-2.28.6.29.91-1.84,2.52-1.67,1.47.78-.1-.76.64L111,32l-1,1.67,2.7.13.77,1.87,1.85-.67,2.87.48,1.33-.86,1,.06.58-.88.79-.2.36-.16-.18-.24-.15-.36.33-.7.49-.35,1.6-1,3.14-.56.2-1.16.62-.44,1-.16,2.22,1,3.68-1.13,1.5.8.51,2,5.12,3.91.37,1.7-.92.93.51.19.94-1,.79-.19-.71-1,.59-.87,1.24.42.52.74.29-.39L143,33.33l.3-.49-1.66-.5-1.08-2-1.24-1,0-1.53,1.77-.13.12,1.22,1-.49,1.21,2.49,1.14.3.85.8-.81-.35,2,1,.92,1-.63,1.74.81,1,.8,1.11H149l-.58.24.42.71,2.71.68-.36.26-2-.76-.41.48.62,1.52.58-.23.39.94.2-.51.76.67-.5-1.61,1,.29-.65-.66.67-.1.67.54.11-.64-2-1.19.68-.11,0-.55.48.41L151,36l.47-.14,1.23,1.08-.23-.59.8.47-.72-.89,1.74,0,2,.78-.75.64,1.67-.92,1.8.31-1.59-2.12-.43-.07,1.48-1.06.31-1.81L159,32l.67-.1,0-1.1.18.25.83-.41.2-.51,1.34-.2.56.53-1-.28.6.31-.25.18,2,.45.14.45-1.24.22.74.13.36,1,.7.44,2.84-.72-1.27-.21-.9-1.13.88,1.24-.61-.22-.63-.76.65-.65-.09.53.85-.51,3.51-.17-.66.66-.93-.27,1.15.95-.4-.28-.6,1-1,0,4.1,2.77,1.77,1.16.64,1.31-.3.5-1.27.44-.22,0-1.89-.32L168,37.89l-1.84-1.4-1.91-.21-2.54.76-2.5-.64.12.57.94.27L159,37.12l0,.34L156.26,37l-.74.53-.2.51,1.19.09-.41,1.13.58.43H156l-.25-.47-.3.49,1.32.55-.38.37.86.69-.49.35,1.38.13-1.25.33,1.43-.08,1.53,1.23,1,.16.26-.93.74.12L164,44.19l1.53-.07.77-.63.89.47,1-.15-.37,1.57.38,1.58L166,51.16,163,51.1l-.22-.69-1.25-.32-2.72.62L156,49.38l-2.52-.54-.31-.71-2.28-.71-.21-.69L148.86,46l-2.4.68-.32,1.9-.1,0-1.62.5L143,47.93l-2.83-1.24-.52-1.5L137.22,44l-1.49-.15-2.66-1.75-.1-.68,1.93-1.08-.63-1.42,1.06-1.13-.94.39-.7-1-2.57.33-1.82-.75-1.6.39L126,36.45h-3.92l-1.74.58-1.19,0-1.73.58-1.06-.18,0-.55-2.27-.06-.59-1.08-.66.1L110.69,38l-4,1.39-1.42,1.39-.64,1.85-.13.09-1,.91-2.37,1.12-2,.11-1.7,1.68L96,47.06l-1.43,2L92.89,50,90.1,52.93l-.78,1.38.4-.47.39,1.58-1,1.26-.23,2.58-1.82,3.06-1.74,1.24.94,1.56L86,66h1.31l-1.13.24-.38-.38-.55,1.31.75.13-.8.19,1,.29-.6.33.62.22-.28.38,1.55-.17-.91.18.59.41-.81.31.23.58.45-.14-.28.39.59-.23-.05,1.52.59.42.58.42-.41.48.49.3-.12,1.4h.54l-.77.08,1,1.35-.21.63,1.64,1.25,2.94,3.88,1.67,1,2.3-.7,3.36.13,2.92,1.37,3.42-1,2.38-.47,4-.18-.71.31,1.57.38.9,1.13.58-.23-.6.34.72.22-.55,0,.17.36.58-.23-.63.54.81,1.67,1.17.08.07-.42.14.46V86l.23.59.32-.6.35.49,1.5.14V86l.4.82.6-.33.32,1.36.88-.06.14.45-.42-.07.42,1.37-1.6,3,.62.22-.29,1-.51-.2,1,.71-.77.08-.25-.47-.61,1.64-.74-.12,1.11,3.12,2.92,4,.38,2.24.78.56-.78.1,1.27,4.13-.82,1,.49,1.61.45,1.81-.65,2-2.13,1.59-1.82,3.73-.36,3.42,3.14,7.82-.23,5.84,2.47,6,1.07,2.69-.09,1.18-.71.32.41,2.13.59-.23,1.41,1.33,3.79-.55,3,.84,3.22-.33,5.09-2.41,1.8-1.66.76-.63,1.92-1.09,2-3.36-.26.27-.34-.6,5.12-2,.92-2.89-.51-2.7.33-1.36.26.37,2.6-1.19,1.23-1.43,5.14-1.42.28-.38,1.83-1.87.21-3.13.37-.26.18-2.37.71-1-.83-.9-.37-.4,0-.1,0-2.82.45-.69-.43-.07.87-1.27-.9-1.79,1.13-2.1,1.71-2.43.43-.57,1.39-.53-.23-.58.85.14,4.14-3.88,4.08-2.25,3.21-2.93,4.88-7.56.16-1v-.55l.77-.08-.53-.09.48-2.2-.69-.44-1.86.77-2.92-.17-1.4.53-.89-.48-1.84.56-1.88-2.39-1-.06,1.39-.52-.09-.77L175.29,79l-1.39-.78-.23-.58-.26-.38-.21.63-1.42-5.14-1.69-1.6-.24-3.74.28.26-.57-1.73-1.68-1.7-.28-1.57.42.07-.91-1-2-5.46-1.3-2-.18-1.43,1,2.23L166,56.51l1.07-2.44-.66,2,.95.26,2.76,4.82.32,1.36,1.44,1.12.92,2.33L172.9,68,174,69.29l1.09,1.27,2.59,5.34-.2,2.46,1,4.42,2.24.27.92-.94,4.31-.35.9-.83,3.87-1,.44-1.34,3.22-.33.42-1.23H196l.42-1.24,1.23-.23-.09-2L198,73l.37.39,1.2-2.63-1.46-2.31-1.8-1-.8-1-.56-1.83.08-1.07-2.47,3-1.78-.4-.6.33-1.08-.73.1-2.49-.73-.23L188.33,65l-1.15-2.15.16-1L185.57,60l-1.26-2.83-.52-.09.58-.22-.33-.71-.08-.13,1.14.31v-.55l.86.69.68-.1.17.24,1.81,3.46,1.3.67,1.78,1.71L193,63l2-.76,1,2.35,3.18,1.2,1.92.87,4.71-.18.44,1.26.61.22.43,1.38.21,0,.18-2,0-.58-.93-2.23.95,2.12-.06.69-.13,1.67.27.38.32.05v.55l.39-.37-.2.51.88,1.24,1.09,0-.1.64-1.13.24,2.13,2.86,1.07-.57-.11-1.87.51.19-.28.39.12.57.32.05-.2.51.5,1L213,76.86l1.33,6.33,2.36,8.56.32,2,.22,1.89.72,1.53.52-.45.18-1.06.7-.32-.16-.35.15-.85.18-.4.43,0-.15-2.31.21-1.26.24-1.38-.47-3,0-.11.14-.85.44,0,.14-.84.72-.33-.07-.87.87-1.93.28-1.68.68-.76.08-1.19-.25-1,.41-.59-.08-.77.37,1,0-.76.3.81-.09-.77.12.56.09-.53.16.36-.07-.89.26,1-.09-1.33.25,1,0-.21-.26-1,.31,0,1.36,4.26,0-.55.11.68.37.39.26,1,.58,3,.2,2.66.09-.53,0,.75.07-.42.23.59v-.66l.1.68,0-.87.15-.19-.1-.68.12.57.09-.53-.24-1.24.38,1.69.12-.08.28,2.87L229,89.8v-.65l.23,1.89.05,1.64,0,.34-.06,1.62,0,1.19.09-.53v.55l-.18,3,.16-.3.14,2.42h0v0l0,.4,0,.21-.2,3.78-.1,2.49,0,2.72.11-.64v.54l.2-2.46.28-2.9.12-1.39-.12-2.52-.12-.57,0-2.71-.07-.89-.11,0V95.22l.06-2.92,0-.11,0-.11,0-.1h0v-.44l-.13-1.21.17-.31.09,1.44.11-.1.18.91.15,1.88,0,1,.06-.32.12,1.21-.06-1V93.51l0,1.31-.09-2.74-.06-1-.3-3.3,0-.53,0-.3-.08-.49-.18-1.39.08.43,0-.91-.08-.13-.5-3.45-.28-1.58-.11-.67-.09-.77v.1l-.07-.33-.16-.9.05.33-.12-.57,0-.18v.07l-.1-.34.07.09,0,0-.07-.24-.17-.8v-.1l.08.23-.29-1.06-.05-.2v.1l0,.12v.12l0,.07.16.72-.13-.45-.12-.57,0,.17-.11-.5-.14-.46-.1-.67-.23-.59.16.36-.26-1-.16-.35,0-.11-.23-.58-.1-.67,0,.11-.21-.7.15.36-.35-1.15-.23-.58,0-.1-.23-.59-.14-.46-.08-.12-.29-.92-.08-.13,0-.21-.21-.69-.1-.12-.21-.69.13.57-.23-.59-.13-.43.15.33-.29-.92-.08-.11v0l0,0,0-.18-.08-.18v-.05h0l-.21-.47.1.27-.12-.16,0-.11v-.1l-.09-.13-.06-.23-.09-.13-.08-.23-.08-.11-.14-.47-.09-.12-.07-.23,0-.06-.41-1.11-.1-.12h0l-.06-.21-.09-.13-.08-.23-.17-.25-.06-.23-.1-.12-.13-.47-.1-.11-.13-.47-.2-.13-.13-.47-.1-.12-.13-.46-.2-.14,0-.34-.25-.47-.67-1.2-.06-.24-.1-.12-.13-.46-.2-.14-.07-.22-.08-.13-.08-.23L219,51.2,218.9,51l-.26-.37-.08-.22-.5-.86,0-.11-.61-1-.25-.37-.77-1.32-.17-.25-.07-.24L216,45.9l-.07-.24-.2-.13-.07-.23-.17-.26-.08-.23-.19-.13-.06-.24-.21-.13-.06-.23-.17-.26-.21-.13-.06-.23-.44-.62-.07-.24-.19-.13-.08-.23-.19-.15-.06-.22-.19-.25-.19-.14-.06-.23-.21-.15-.06-.22-.44-.62-.19-.15-.07-.23-.44-.62-.2-.13-.07-.24-.19-.13-.71-1-.19-.14-.07-.23-.2-.14-.44-.61-.19-.15-.07-.23-.19-.14-.44-.62-.2-.14-.07-.24L208.1,35l-.44-.62-.38-.28.09,0-.08-.13h0l0-.12-.09-.06v-.06H207l-.27-.38-.08-.11v0l-.09-.11-.38-.28-.08-.24-.19-.14-.27-.37-.19-.15.18.26-.29-.28-.17-.24-.09-.12-.31-.33.25.25-.2-.29-.2-.15.07.11-.44-.5-.36-.41-.11-.11-.17-.13,0-.05-.08-.07-.1-.14-.25-.24.53.62-.65-.65-.19-.15.11,0-.25-.23-.32-.29.09.13-1-1.07-1.19-1.18-.12-.1v.09l.48.47-.59-.49-.08-.23.2.16h0l.11.11.36.3-.18-.26-.58-.41-.07-.24L199,25.5l-.17-.24-.19-.15-.1-.11-.38-.29-.17-.25-.78-.56-.27-.38-.78-.56-.05,0h0l-.52-.37-.08-.12.6.49-.63-.53-.16-.22-.8-.59-.45-.38.26.24-.17-.12L193.8,21l-.08-.12-.59-.43-.08-.13-.58-.42-.1-.12-.38-.28-.21,0-.09-.13-.78-.56-.08-.13-.59-.42-.1,0-.39-.28-1.35-1-.21,0-.2-.14-.09-.12-1.16-.85-.22,0-1-.71-.21,0-.77-.56-.21,0-.78-.58-.21,0-.78-.56-.21,0-.57-.43-.22,0-.39-.28-.21,0,0-.11-.21,0-.39-.28-.21,0-.38-.28-.22,0-.39-.28-.11,0-.1,0-.05,0,.15,0-.26-.13-.05,0,0,0-.21-.11-.21-.15-.11,0-.35-.18-.15-.12h-.21l-.19-.15-.15,0,.23.16-.26-.16h0l-.1-.07-.38-.22h-.11l-.25-.14.35.15-.47-.22.07,0-.4-.17-.41-.18.51.2-.11-.06.13,0,0,0-.19-.09-.28-.17,0,.06-2-.93-.93-.37-.76-.32,0,0h0l-.46-.19-.2-.14-.31,0-.41-.18-.62-.21Zm6.21,2.66,0,0h0Zm0,0h-.06l.23.11Zm.64.32-.49-.29-.09,0Zm.39.23.14.08h0l-.45-.29.28.21ZM200.64,27l.83.88,1.25,1.23.41.35-.26-.23-.77-.8-.16-.12,0-.07-.42-.44-.21-.15-.16-.22v0l0,0-.18-.12-.08-.13Zm2.78,2.74.16.15,0-.12-.19-.13Zm.48.5.18.15-.08-.1-.14-.11Zm24.33,46.07v.09l.11.47Zm0,.09,0-.13,0,.18v-.05Zm1.93,14.69.07.67,0-.2-.1-1.33Zm.15,3.75v.65h.1l0-.43,0,.32Zm0,1.19,0-.21,0-.26Zm0,0v1.8l.06-.8Zm0,1.8,0,.27,0-.11Zm-3.7-17.88-.21,0,.29.81ZM92.89,50l.11-.12-.37.27ZM141,10.81l.19,0-.83-.26.64.24Zm25.27-4.12L166,7l-1-.16,0,.1-.48.25.81.35-.24.17.1,0-.25.18,1,.16-.35.15.32.06.73.12-.6-.31.51.18L166.07,8l.51.19-.49-.31.41.19-.61-.32.53.09-.08-.13-.16-.35.9-.17-.8-.46Zm-.36,1.57h-.55l.4.18-.34.06.64.1-.28.39.49.3h.65l.89.58,1.57.38-2.12-1-.56-.53-.07-.24ZM135.48,2.12l-.67.12.53.09Zm38.31,6.6.4.18.49.3h.11l.2.14.59.33-.9-.48-.21,0L174.38,9h-.1ZM133.4,2.22l-.44,0,.53.09Zm-1.75,0,.51.19-.56-.19ZM171.23,9l-.34.06.4.17.22,0ZM131.39,2.52h-.65l-.32-.06-.24.18.4.18.33-.24.44.15ZM121,.88l-.35.07h0l-.32,0,.08,0-.19,0h.3L121,.88Zm-.77.08L119.9,1h0l-.08,0-.48.09.33,0-.22.07.33-.06.32-.05H120l.23-.08ZM120,1h.19l.11-.05Zm-.56.12-.11,0-.1,0-.25.07h-.09l-.26.06-.08,0-.43.13h0l.29,0,.33-.06h0l0,0,.34-.05.34-.05ZM178,10.77l.18.1h-.05Zm-3.29-.18,1.61.73-.93-.38Zm2,.41.68.38,1.39.78.39.3.23-.08.71.34-.94-.26-.49-.31-.41-.17-.88-.6.29.28Zm-58.8-9.67-.31.09.51-.06Zm0,.11-.52.06-.07,0Zm-.59.08-.52.06-.24,0h-.1l.1,0,.45,0h-.31l.53-.08Zm-.86.1-.57.13-.77.09-.81.19.45,0-.77.09.21,0,.23-.06.11,0,.39-.1.27,0,.47-.13.43,0Zm0,0h.1v0l-.11,0Zm.11,0,.15,0-.14,0Zm.15,0,.08,0L117,1.5h0l.25,0h0l-.22.06.27,0,.06,0h-.09l-.11,0-.53.12Zm-2.52.55-1.24.24-1.7.36-.22.07-.13.08.11,0-.75.18L110.4,3l.46-.14,0-.1L110,3l0,.11-.34,0-1.17.46,1.72-.47-.49.25.83-.3-.13.09.45-.14.11,0,.46-.15.22,0,.43-.22.38-.08-.78.09.57-.12.12-.1.65-.07.36-.07-.68.1.57-.12-.34,0-.34.06.81-.19-.24.07.56-.13-.1,0,.34,0Zm-1,.27-.23.06.57-.12ZM110,3l-1.14.25-.35.16-.92.27-.23.08-.06,0h-.06l-.12,0-.43.09L106.2,4l-.35.15-.23.08-.57.12-1.54.72L106,4.2l.25,0-1.62.6,1-.37,1.84-.56.49-.19-.26.12.38-.16.89-.24Zm-.93.32-.12.05.46-.14Zm-1.83.41.24-.07.43-.13-.76.19Zm62.9,6.72.38.28.81.36,0-.11-.19-.14-.11,0ZM118.22,1.83l-.33,0-.57.13.19.14-.54,0h.76l.59-.23.22-.06ZM179.6,12.31l.11,0,.78.46-.8-.35ZM149.06,7.47l-.47.25.68-.21Zm6.56,1.11-.17.41-.72-.23Zm10.9,1.85-.13.19.59.32.36-.16Zm14.08,2.38.51.2L180.8,13Zm-33-5.25-.57.12.32.05Zm.22,0-.5.34,1.11-.13h-.55Zm34.34,6.13.42.07-.12.08ZM158.46,9.82l.36.5-.45,0Zm-4.25-.6,1.17.19-.25.18ZM112,2.78l-.12,0-.34.06Zm66,11.33.06.23-.81-.25ZM127.7,5.71l-.7.21-.85-.14-.36.26.15-.3-.9.18L125,5.69l-.1-.13L123.62,6l.72-.43-.48-.41-.28.39-.17-.25-.38.27-.3-.17-.13.21.94.16-.77.08.3.15-1.39-.12,1,.6-1.45.2,1.08.07.4.18.39.28,1.52,0,1.64,0,1.36-.32-.19-.14.43.07V6.06l.57-.12-.68.1Zm56.19,9.5.63.22.77.56,0-.1.7.34,1.16.85-1.27-.87-.59-.32.08.12,2.22,1.69.17.16.5.38,1.77,1.18-1.79-1.07-.48-.49-2.3-1.72-1-.6ZM157.71,11l.27.36-.51-.18ZM112.15,3.62l0,.11-.82,0Zm66.06,11.72,1.64,1.26.34.6,3.49,1.9,2.73.57,2.24.93.15.09.15.06,1.46,1,.41.18.69.44,1.86,1.19.7.44,1,.71-1.67-1.15-2.49-1.4-.47-.41-1.61-1.07L187,20l-2.84-.59L185,20l-4.76-2.77-.63-.76-1.35-1.1Zm-23-3.56,1,.49-.95-.16Zm5.41,1.45.12,0,.89.48-.53-.09.14.46Zm4.86.94.78.56L169,16.06l-2.73-1.22Zm-10.18-1.62L157,13.83l-.79-.46,0,.42-.5-.28.27-.29Zm4.95.95.4.28-.52-.19Zm-5.54-.72.1.67L155,13l.38.29L155.1,13l.5.3-1.07.48,0,.48.09.07h.56l-.15.31-.41-.3h-.09v-.07l-.28-.21.26-.27.26-.29-.13-.46-.4-.17.43,0Zm6.43,1.3,1,.5.88,1.24-.35.15-.83-.24h.65L161.19,15l-.43-.72.67.54-.35-.49.56.53.34-.06ZM104.34,4.71l-.42.07-.07,0Zm-.49.11h-.07l-1.15.35,0,.1.58-.22.66-.24Zm-1.22.36-.95.36.25,0Zm-.95.36-.08,0,.22-.09-.45.14.15,0-1.22.51,1.22-.5-.06,0,.22-.09Zm-1.38.55-.1,0-.13.09Zm3.62-1.31.09,0-.57.12Zm53.35,8.88.51.19-.09.53-1,.15.51.2-.87,0-.46-.51.63.21.56-.12-.78-.46,1.05.17Zm-4.18-.39.74.12.07.24-.76,0-.06.31.81-.19-.61.34-.2-.15,0,.12Zm5.56,1.27,1.84,1.3-1,.36-1.52-1.34ZM101.07,6l-.33.12.22,0Zm-.33.12-.12,0-.2.09Zm-.32.11-.39.14-.69.21L99,6.74l-.47.14-1.39.52L98.08,7l-1,.36,1.29-.54-.11,0L97,7.28,94.47,8.37l-1.54.71-1.33.65L92,9.58l-.48.25h-.07l-.16.07-3,1.46-.6.34-.12.08.11,0-.13.09.11,0L86,12.81,87.33,12l.25-.26-.72.43-.13.09-.12.08-.07,0-.61.34-.05.06-.15.05-.14.07,0,0-.14.1-.08,0h0l-.14,0,0,.07h0l0,0h0v.11l-.11,0-.12.09.1,0-.34,0-.13.2-.23.07-.5.35-.23.07-.15.19-.45.14-.15.2-.22.07-.87.61-.23.08-.14.19-.23.07-.67.48-.08,0-.11.09-1,.71-.34.23,0,0-.12.08-.07,0-.18.12v0l-.36.24-.13.12-.33.16,0,0-.08,0-.19.13h0l-.12.15-.23.07-.24.18-.15.19-.14.2,1-.81-.4.37.83-.4.51-.46-.13.19,1.43-.74-.85.51.1,0,.22,0-.6.33.38-.37-1.43.73-.88.73-.4.37L78,18.43l0,.21.36-.27,1-.37.36-.15.21-.23.29-.12-.12,0,1.08-.59,1-.69-1.68.9-.41.37.17-.19-.57.13.65-.66.38-.26.62-.44h-.12l1.11-.69-.36.15.38-.26v-.1l.21,0,.7-.33,1-.59-.08-.13-1.07.48-1.32.75.74-.52L84.15,14l1.08-.58.37-.26,1.16.19.24-.07,0-.05h0l1.49-.67.67-.1,1.28-.44.38-.37.2.14L91,11.59l.21,0,.24-.18.84-.4.49-.36-.79.19.83-.4.14-.19-.78.22.67-.24-.56.12,1.35-.31,0-.21L94,9.71l-.34,0,.48-.24-.82.29.71-.31.13-.09-.28.12-.41.09,1.29-.54,0-.22.45-.14-.11,0,.26-.17.23-.07.11-.09.82-.3L97,7.81l.33,0,.38-.27L98,7.34l.46-.14-.44,0L98.72,7l.59-.23-.21,0,.33-.06,1-.47ZM80.69,16.49l-.56.67.84-.4-.32-.06.75-.63Zm.47.4-.68.5.29-.12.11,0,.14-.2Zm-.68.5-.28.11.1,0Zm-3.9,1.45-.12.09-.22.08-.13.08-.15.19.13-.08.11,0Zm.75-.61.14-.1-.12.08,0,0Zm1.11-.74v-.07l-.11.08-.19.18Zm7.15-4.58.1-.06,0,0ZM98.21,6.82l.47-.13-.36.15.81-.29-.1,0Zm66.27,9.91.18.24-.64-.11Zm13.39,2.59,1,1.14-.15.2L179,21l.11.1.62.1-.34.06.46.51-.74-.67h0L179,21l-.19-.17-.62-.21.46-.14-.61-.22.24-.17-.42-.72Zm-33.64-5.15.74.13-.3.49-1.43.08.3-.5.64.11Zm20.3,3.54.74.12-.44,0,.31.16.87.59-.28.38-1.38-.88.92.37Zm-12.85-2,.4.3.55,0-.52-.2Zm4.88.83-.09.53-.57-.53Zm-27.79-4.37-.63.55-.53-.09-.22.61-.92.28,1,.17-1.6,1,.83-.4.7-.21,0,.33-.29-.16-1,.91.07.24.25-.18,1.61.17-.82.29.15.47.43,0-.63.55.17.24-1.49-.15-.72.32h.66l-.07.43-1.81.34,1.5.8,1.34-.2-1,.46-1.17-.19-2.21.83,2.16.14.49-.35,3.51.49,1.56-.18.14-.19-1.05-.28h.66l1.32-.76-.14-.46-1.26-.22h-.11l.42-.58-.19-.15-.42-.07.76,0,.05-.31-.78-.57V14.82l-1.34-.44,1.18.09-.62-.21.89-.08,1.22-.77-2.25-.26,1.86-.67-1.59-.27Zm-1.07-.07-1,.26-.14.19.57-.12Zm23.81,4,.14.45,1.13-.24Zm8.15,1.37.37.39-.72-.23ZM149,16.28l-.8.2,0,.43Zm29.63,5,.76.67-.81.29.62-.44ZM170.14,20,170.07,21l-.61-1Zm-43.42-7.23.12.57.15-.19ZM140,15.41l.72.23h-.66l.06.32-.28-.26-.46.14ZM170.4,21l1.29.76,1.41,0-1.43.07L170.4,21Zm-43.84-7.31-.47.25h.64Zm-31.94-5L94.15,9l.25-.18Zm48,8.11-.28.39-.16-.36-1,.06.77,1.32.07-.42.83-.4Zm34.57,6.06.29.27-.23.07-1.38.42.07.23-.16.3.48.41h.64l-.29.5.83.24-.78.08.23-.06-1.23-1.08.27-.93-.16-.36.49.3,1-.05ZM140.92,17h-.65l-.18.4.74.12Zm58.31,10,.28.26,0,.28.09.14.57.58.86.78-.76-.67-.1-.11-.47-.42-.1-.16-.07-.08,0-.06-.31-.54Zm1.47.25.2.13.45.52ZM124.48,14.42l-.5.36-.07-.23-1.15.35.53.09-.6.33-1.38-.23.15.45-.9.18,1,.39-1.5.51,1.28.11-1.86.11.52.09-.9.18.85.14-.79.2h.75l-.45.15,1.87-.13h1.85l1.15-1.66,1.23-.22-.08-.77h-1.2l.46-.14ZM92.67,9.37l-1,.57.37-.23Zm109,18.53.24.23,0-.08Zm-7.28-1.22.42.07,0,.44-.51-.19ZM92.51,9.67l-1,.5.08.11-.44,0,.36-.15-.47.13-.6.33.37-.26.23-.07.17-.1.19,0,.17-.09h-.05l.7-.32-.65.32h0Zm51,8.84-.47.13.41.19ZM89.77,11.06l-.6.34,0-.11ZM185.33,28l.57.53-.45,0Zm19.83,3.61.21.22-.08-.13Zm-29.51-4.92-.62.44.1.67.75.77h-.66l.07-.42-.16-.36-.32-.71ZM89.88,12.38,88,13.15l-1,.61-.82.4-.23.06-.5.36.15-.2L84.43,15l.32.05-1.17.45-.39.38.59-.23,0,.34.91-.29-.83.4.78-.08-1.39.52.32.06,1.55-.83-.52.46-1,.6.83-.41-.87.63.21,0,1.45-.84.26-.29-.58.23,1.09-.58-1.19.57.36-.27.36-.16.15-.2.68-.2h-.55l1.44-.73-.43-.08.48-.24-1,.36.82-.4-.54,0,.93-.38-.1,0,.25-.19-.36.17,1.79-.9.26-.28.21,0,.28-.28ZM205.22,32.11l.56.52.63.77ZM86.48,12.42l-.11,0-.11.1Zm-.22.12L86,12.6l-.09.11Zm118.5,20.35.55.54.06.34-.55-.64Zm-55.7-8.64,0,.32v.11l-.05-.34ZM85.32,13.57l-.67.76.34-.16.3-.39ZM161.21,26.4l3.67,2.15.54,0,.21,1.34-1.29-.1-.31.59-1.1,0,1-.06.25-.82,1.17.2V29l-4.14-2.55Zm41.48,7.13,0,.28L203,34l.41.26.12.57.36.39,0,.21.79.46,0,.21-1-.71-.35-1.15L203,34l-.28-.17v-.06l-.27-.22.23-.06Zm-29.28-4.62.11,0,.1.1.49.31,0,.22,0,.31L173.71,31l-.86,0-.12-.56.6.31-.1-.77.43.07.41-.48-.45-.53-.21-.12Zm32.8,5.65.38.39.08.13-.46-.52Zm.78,1.22.28.26.22.58Zm-25.13-2.72,1.67.38.36.51.11,1.32.7.33-1.78-.41-.22.62.67.54L182.12,36l.06.34.7.33.84,1.45,1.6.81v.76l.95,1.47L185.93,40l.66-.1,1.57,1.67-.83.4-1.07-.72.15,1,.51.85-.25-.48.72.23.33.71-.5-.3.11.66.37-.26.52.74.91,3-2.27-.06-3.26-2-.77-1.88.3-.49.11,0-.14-1.12.79-.19-1-.5-2.56-2.93-.58-1.73-.09.53-1.13-1.61.21-1.27,1.39.13.16-.95,1.57-.28Zm18.8,3.49,2.25.83.37-.27-.2.51-2-.88-.15.84.75,1.32-1.1-1.16-.09-.77Zm-10.61-1.67.91.36.25-.17-.22.72.32.6,1.27.88-.28.38-.14.85.46.51-.79.09-.22.06-.44-.61-1,0L189.47,37l-.24-1.12L190,36l-.31-.71.48.41.05-.32ZM80.1,16.33l-.15,0-.13.08-.07.09ZM204.82,37.7l.71.88-.69-.44Zm-129-18.33-.23.08-.15.19Zm59.48,10.72-1.31.64.24,1.13.88-.61ZM74.69,20.2l-.46.32-.06.07.17-.05Zm-.52.39h-.06l-.08.11Zm-.14.12-.19.17L74,20.8ZM205.75,42.43l.3.16-.09.53-1-.5ZM211,44.08l.27.38L211,44.4ZM73.79,20.93l-.32.22,0,0h0l-.07,0,0,0-.19.18h0l.13-.13-.08.11.13-.09Zm-.58.5,0,0-.07.07Zm-.08,0-.15,0-.15.2.13-.09Zm61.3,10.76L133,32.3l-.33,2.56,1.56-.17.68-1.52ZM72.59,21.87l-.12.09-.39.37.12-.09Zm-.51.46.06-.09-.31.27Zm-.25.18-.37.26-.06.08Zm-.43.34-.46.38.37-.27Zm-.46.38-.12.08-.43.4.17-.12.25-.17Zm-.38.36-.58.55.31-.26Zm-.58.55.1-.14-.29.28.12,0Zm-.19.14-.12,0-.14.19Zm-.26.23-.24.17-.14.2Zm-.38.37-.24.23.59-.53Zm-.24.23.14-.15-.42.37.12-.08Zm-.28.22.05,0-.17.14.11-.07h0Zm.05,0,.37-.32,0,0-.32.22ZM70.08,24l.31-.29-.2.15Zm2.06-1.76.33-.28-.26.18ZM179.69,40.09l.58.42-.93-.26ZM126.43,32.5l-1.26.33.69.44.84-.4Zm29.31,5.71-.68.12.59.41.41.07ZM164.46,40l.28.92-.47-.41Zm-12.61-2-.68.1,1.92,1.53-.27-.92Zm25.07,4.34-.47.79-1-.38Zm-28.79-4.21-.29.38.62.22Zm-6.41-.76L137.53,37l.12.56,2.77,1.66Zm37.36,6.32.86,1.34-.47.25-.83-1.56ZM68.65,25.23l-.26.28.06-.05Zm-.2.23-.1.13.14-.16Zm-.09.09-.21.22.09-.06,0-.05,0,0,0,0h0l0-.07Zm-.28.28-.21.14-.15.2,0,0,.07-.14-.21.24.07,0,.06-.05-.07.15Zm-.55.47-.17.13-.15.19L67,26.8l-.06.09-.58.55h0l0,.05-.09.13.35-.35-.13.1.37-.33-.21.21.13-.08.13-.18,0,0,.49-.44.19-.23Zm-1,1-.23.27.24-.27ZM218.86,51.84l.5.94-.1-.12-.17-.24-.19-.15,0-.21Zm-60.81-9.31-.81.29.39.3ZM66.14,27.67l-.22.15-.13.17Zm-.36.34-.23.23.09,0Zm-.14.2-.24.17.15-.14-.14,0-.29.39.26-.18Zm-.52.46-.12.09-.14.19.13-.09ZM166.33,45l-3,.36.94.92,1.36-.31-.24-.47Zm-14.51-2.34-.09.53,1.53.57,1.91.33.18-.4-.69.21ZM64.84,29l-.1.07-.1.13Zm-.2.2-.26.27.07,0Zm-.26.27-.16.06-.34.45Zm-.5.51-.18.19.1-.07Zm-.2.22-.13.08-.17.23Zm-.3.31-.37.39.11,0Zm-.37.39-.12,0-.28.38Zm116.27,20,1.38.9,1.33.44.32.71-.42-.73-1-.16Zm43.35,7.82.09.26,0,.05.05.15.16.41-.06-.11-.1-.3-.09-.2,0-.08Zm.38,1,.08.2,0,0ZM220.25,61l.32,0-.09.53ZM224,62.12l0,.06h0Zm.08.21,0,.08h0ZM99.28,43.05l-.83.4.57-.13Zm122,20.64.27.36-.05.32ZM98.43,43.55l-1.24.88.67-.1Zm-2.91-.16-1.11.14v.54Zm.22.58-.28.38H96Zm98.89,18.57-1.17.46.89-.18Zm28.18,5.85-.15.85.63,2.72-.72-2.73ZM222,70.1l1.21,2-.8-1.11Zm-58.16-8.2.24,1.79-1.53.07-1.68,1.56L162,63.77l1.32-.1ZM49.7,49l-.17.41-.16.3-.1,0-.33.6,0,.1-.33.7,0-.21-.15.31-.17.34v0l-.5,1,.31-.6.15-.19v0l.29-.45-.07.42.42-.57.24-.72.17-.41,0,.11.32-.61Zm-.51,2.42-.34,0-.31.6.22-.07ZM229,81.86l.09.12-.06.32ZM90.64,61.29l.91,1L92,64,90.62,61.4l-2.45-.32ZM48.79,54.42l-.26.29-.19.51.38-.37Zm124.83,22.2,0,.45.61.21-.54-.64ZM104.45,65.25l.42.73-.44,0Zm-26.65-4-.09.53.31,0ZM229.91,87.56,230,89l.06.38Zm-98-14.82.13,1.11.7-.21-.09.53,1.44.46-2.06.63-.79-2.42Zm95.4,17.87-.09.52.14.47ZM192.08,85.3l.9.48.69-.21ZM44.19,60.41l-.55,1.31-.2.51.07,0,.11-.37L44,61Zm-.68,1.79-.12.34,0-.09L42.82,64l0,.3-.16.31-.1.29.08-.18-.06.19-.07.12,0-.13-.1.22-.1.33.09-.24,0,.08-.07.16.07-.12,0,.11-.07.09,0,0h0l0,.07-.05.17,0,.14,0,.07,0-.08,0-.13,0-.18-.12.43L42,66.3l.09-.27-.22.84,0-.1-.15.43v0l-.08.25L41,69.76l-1.09,3.85-.17,1-.36,1.57-.06.32L39,77.6l-1,6.14L38,84l-.11.64-.05.32-.1,1.15v0l0,.11v.1l-.07.43.07.23,0,.86,0,.1,0-.85-.07-.24-.11.64.06.34-.18,1.05.06.23-.14.85.07.23-.14.85.07.22-.12.74-.09,2.38,0,3.06.07,2.19.17,3.51,0,.86.23,2.44.32,2,.12,1.23.33,1.9.43,2.58.48,2.36L40,119.9l.78,3.08,1.77,5.63.6,1.62.09.13.28.92,2,4.7,1.91,4.13L48,141.3l.15.35L50,144.77l1.35,2.31.35.49.09.16v.07h0l.2.36.71,1,.86,1.34.25.48.11,0,0,.1,1.49,2.11.1,0,.2.4.17.21h0l0,.09-.09-.1h0l.17.25.1.11L56,154l.15.19h0l.08.13.53.75-.21-.42,0,0h0l.2.37h0l.11.13.06.11h0l.32.39.28.26v.1l.28.27-.19-.14.46.51.45.51.27.38.08.11.21.26h.07l0,.13h0l.3.36.27.37.46.51.17.25.19.13h0l.37.39.44.62.55.64.45.51-.55-.64.2.15.09.12.32.38h-.06l.7.67.11.13.16.17,0,.07.09.08h0l0,0,.25.3.06.05h0l.22.18.25.26-.06-.11,0,0,.14.16,0,0,.08.1-.23-.23.11.15.14.13h0l0,.05-.06-.05h0l.09.13.47.4-.09-.12.18.13h0l.2.14.08.13.12.18.65.38-.26-.38-1.24-1-.65-.64.08.12-.19-.15-.13-.09,0,0,.15.14-.15-.15,0-.07.22.2-.89-.88-.17-.24-.82-.9-.1-.13-.54-.64-1-1.14-.09-.14v-.1l-1-1.15-1.76-2.47-.29-.27-1.09-1.27-.68-1.1-.16-.35-1.22-1.84-.4-.83-.46-.51,0-.21.36.49-.15-.36-.54-.73.25.47-.45-.51-1.21-2,.66.66.06-.32-1.36-2.3.19.15-.61-.87.49.31.15-.21.26-.27v-.66L51,141.46l-.51-.84L50,140.1l-.37-1-1.18-1.4-.85-2.1.65,1.3.5,1,1,.71.68-.21L50,136,49.48,134l-.19-2.09-.33-.6.63.76.12,2.52.14-1.39-.25-1.79-.16-1,.2-1.17-.51-2.15-.52-1.4,0-1.09-.27-.37.3.16.09-1.18.52-1.12h.64l.46-1.33.7.34.21-.63.14.47.73.22-.09-.77.67-.76-.19-.79.53-2.52.07-.43-.1-2,.29-1-.16-8.08.18-.4.19.79.32-.6,1.89-4.14L57,98l.24-2-.17-2.85-.31-.71L55.3,91.9l-1.12-2.37L53,87.92l-2-.34-.91-1-1.25,1.54.21-1.27.29-.39-.46.13.45-.68-.14-1.11-.34.7,0-.86-.26.28.18-.4-.27.28-.1-.68-.18.42,0-.77-.18.41-.47-1.06-.18.41-.37-.39-.55,1.32.3.15-.26.29-.13-.57-.82,1.61L46,84.76l-.81.3,1.18-.57L47,82.54,45.66,82l-.46,1.45v-.77l-.33.72.14-.85-.35.81.48-1.55,1.2-2-.11,0L46.5,79l-.42-.73.49-3.61-.07-.23-.19.51-.07-1.54-.6-1.62-1.49-.15,0-1.86-.35.82L44.26,69l.07-1.08-.07-.89,0-.21L44,66.9l.47-1.45v-.76l-.24.18,0-.32.11-.63.53-.57-.76,0,.06.34-.56.67.06-1-.35.17.4-1.13,0-.38,0,0V62l0-.22-.17.41h0l-.05,0ZM43.7,62v0l.16-.35h-.06Zm.11-.31.31-.82-.36.81Zm21.8,103.47-.13-.15V165Zm-.13-.15v0l-.28-.27.27.3Zm-1.61-1.56,0,.05.19.15-.21-.2Zm-.44-.46-.21-.24-.16-.15.54.64-.08-.13ZM42,66.3l.06-.23-.09.17,0,.32,0-.17ZM169.48,81.81l-.4,1.12-.39-.93Zm-53.61-7.43.82.89-.57,1.43,0,.22-.06-.24-.21-.68.77-.74ZM45.22,63.3l-.35.16-.11.63-.28.39.34,0ZM220.14,94.51l-.13.09-.12.09.1,0,.25.47-.17-.25-.15.85,0,0h0l-.11,1.78-.16-.36.17,1.58,0,.19.07.23,0,1.75.8-.2.55-1.32-.33-2.56-.79-2.42ZM44.18,65l-.49,1.65.08.12-.86.85-.47.56,0-.33-.27.28-.94,2.35.49-1.55.45-.8.29-.38,0,.43.28-.38.19-.18.63-.77.2-.51Zm62.59,11.67,1.35,2.29.08.23.66-2-1.22,4.58.09-.53-.08-.12-1.08-.73,1,.5.15-.2.35-.8-.16-.36-.3-.16-.74-.13,1-.16-1-.7,0-1-1.17-.19,1.08.06v-.64Zm11.73,2.74.4,1.49-1.29,3.8,1.21-3.93-.32-1.36Zm-18.78-2.3-.61,1.09.15.35.48-.25-.36.82-.5-.85ZM43,68.14l-.46,1.45.32-1.24Zm184.65,32.21.11.67.07-.42Zm.43,2.68,0,1.64.26,1.68-.08,2.38.16,1-.3,2.45,0,1.4-.08.43-.56,3.93-.5,3.62-.27.94.22-.62-.07.43,0,.1-.29,1,0-.1-.06.19-.13.32,0,.31-.24.73,0,.31-.22.79.14-.36,0-.11.46-1.44,0-.11.27-.93.09-.53,1.07-4.39.33-1.36,0-.21-.19.51.24-.83-.06-.23.37-1.57v-.55l.36-2.11,0,.1,0-.34,0-.21.09-2.49-.14.85.09-1.84v-.54l-.18-1.55.09-.53-.18-1.45-.63-.77Zm-2.24,23-.44,1.17.16-.3.22-.62.06-.25ZM44.76,73.13l-.1.64-.26.17ZM166,94.17l.1,3.94-.91-2.33.81-1.61Zm-44.81-6-1,.49,0,.11.38.28Zm106.65,19.67.18.79-.09-.78ZM136.14,92.93l-1.56,4.64,1.58-2.24,1.51-.51,1.26-.43.36-.16,3.52.3H143l.19,0,3.08,3-3.27-3h-.16l-3.93.17-1.21.12-1.67.81-.12,1.4-4.32,3-.36,1.47.14-1.4,3.14-2.52,1.66-4.62Zm21.78,3.8-.52,1.1-1.33.87v-.76ZM161,98.44l-.68.12.12.56-1-.5ZM228,110l0,.21v1.42l.12-.75Zm1,.39V111l0-.31Zm0,.65,0,.22,0,.33Zm-68.51-10.72.12.57.75,0,.24,1.12.82-.3.16.36-1.34.2-.38,1.57-1.41.63,1,.5-.82.41-.72-.34v.76l-.48.25.25-.83-.88-.58-.8.84-.09-1.44,1.2-3.16,1.14-.35.48.4Zm-114.17-19-.56.12.14.46Zm108.38,19.08-1,.71.34-.7ZM39.16,81.1l.41.19,0,.11h.06l.14,1.16.11.62.24,3.09.11,0,.5.09.1-.21.35-1,.09.06,0,0,.08.12.2.14.47-.9.22,0,.31,0,.19.25-.09.53.23-.08.95-1.14-.69.86-.28.39-.45,0L42,87.36l.36-2.11.19.14L42.21,85l.21,0-.14-.46-.7,1-.19-.25-.1-.08-.44,1-.07.21h0l-.14.3-.36-.39-.15.19-.73,1.08,0-.19-.05.06,0-.43-.42,1.23v-.76l-.13-1.11-.05.32V85.27l-.13-.46-.23.07.35-.15.12,1.87.16,1,.31-.59.09.37.38-.51.11-.64.31,0L40,86l-.08-2.74-.09-.73-.2-1.17L39,81.31ZM121.56,96l.5.29-.59.23Zm106.23,18.29-.16.29,0,1ZM41.93,83.43l.28.26-.09.53Zm93.61,16.26-.54.57.5.3-.79.84,0-1.62Zm17.36,2.94.4.83-1,.59Zm-108.44-18,.61.2-.32.61,0,.44-.14-1.12-.15.85Zm182.93,32.67-.16,1,.22-.62Zm-189.31-31,0,.21-.19-.14Zm114.73,19.41.28,4.18-.55.67,1.18,1.39.35,3.11-1-.6-.19-2.11-1.16-2.14.68-3.38-.39.37.79-1.49Zm15,6.56-.34.7.44.62-.06-.88Zm-12.16,1.1.81,1-.92-.38Zm-3.85.88.61.2-1.16.46Zm-1,0-1,1.26h-.64l.22-.72ZM158.3,117l.61.87.12,2.52-.8,1.5.1,3.28-.88-.58-.23-3.19.8-.85,0-2.82,0-.45.11,0Zm-7.05,1.1.11,0-.11.63-.56.12Zm20.5,4.34-.3.49.26.37Zm8.2,2.36-1,.59-.36,1.47-1,.6-.38-.39-.18,1.06-.32-.06-.84,1.17.2-.62-.88.73.14.45-.46.14.22-.61-.84.4-.12.74-.35-.5-2.66.32-1.42,1.94-.45,3.95-2,1.72-.9,1.48-.48,4.17,1,.83,3.09-.24,7-9.6.58-1.53.73-.42.36-2.12.43,0,.08.89.67-.76.45-4-.65-1.31.3-.49Zm-6.9-1-.35.15.36.39ZM147.89,127l-1.55.18-2.1,1.49,1.67-1.56Zm-99.4-14.19L49,114l-.16.29-.3-.16.12-.73-.24.17Zm137.77,26.23-.58.78.6-.34ZM48.83,116.72l0,.32.32.72-.51-.85-.24.17.65,1.31-.34-.6-.16.29.08-.41-.41-.83ZM183.38,140l-.57.12.44.62ZM47.17,120.68l.43.07,0,.44Zm-2.82,5.73,1.12.51-1.17-.19.64,2.68.08.16.35,1.15.45,1.16.12.57.25,1.13.84,2.1-.86-2-.25-1.13-.18-.8-.37-1-.31-.81-.12-.5-.09-.2-.55-2.48.05-.32Zm95.44,16.35-.43.59-.54-.29h0l.34.36-.5-.31.16-.05,0,0,0,0ZM44.91,131.51l.12.57-.25-.49Zm4.59,3.06.37,1.05-.21,0,.24,1.13-.29-.81Zm-1.11.14-.09.53.16.36-.3-.17-.1,0Zm7.53,19.14h0l0,.07Zm.27.41.29.36-.3-.33v0Zm114.9,22.33-1.25,1,.58-.23.26.37,0-.44.52.19.5-.34-1,0,.49-.24-.57.13ZM63.3,161.18l.65.66.12-.08-.37-.39.26.37Zm.65.66.15.35.27.38-.16-.36,0-.11Zm-1-.6.57.53.15.35.23-.07-.53-.74-.21,0Zm.53,1.71.2.18-.07,0Zm11.3,3,1.87,1.19-1-.94Zm-8.64-.37.46.51.29.16Zm12.07,9.12.27.26.13-.09Zm-.24.06.36.5.08.12.44.39,0,0,.71.63.55.34.56.54.69.44,1,.6-.34-.14-.76-.48.65.44-.07,0,.21.12.48.33h.11l0-.09,1,.7,1.17.77.31.13-.11,0,.29.19.52.17.17.25.8.45.81.37.9.47.68.44.11,0,1.5.8h.09l-.14-.07,0,0,.21.13.19,0,.38.28.21,0,.2.14.29.17.23,0,.19.14.21,0,.19.15.3.15.21,0,.19.14.22,0,.29.16.21.14.21,0,.19.14.21,0,.3.15.21,0,.19.14.22,0,.29.16.2.14.21,0,.19.15.21,0,.31.16.21,0,.19.15.22,0,.29.16.43.07.19.14.32.05.19.15.21,0,.19.14.32,0,.19.15.43.07.3.16.21,0,.2.13.53.09.19.15.21,0,.22,0,.29.15.22,0,.19.15.53.08.19.15.42.07.11,0,.19.13.43.08.31,0,.2.15.21,0,.21,0,.31.15.41.07.32.06.19.14.11,0,.63.11.21.14.09,0,.85.14.2.14.21,0,.75.13.29.16.11,0,.94.16.32.06.31.15.85.14,1,.18.2.15.11,0,.41.07.85.14,1,.16,1,.16,1.06.18,1,.16.74.13.21,0,.33,0,.32,0,1.06.18.53.09.21,0,.23-.07.64.11.53.09.11,0,.32-.06.11,0,.85.14.1,0,.24-.06.63.1.11,0,.23-.07.85.14.09,0,.24-.08.42.08.32,0,.23-.06.42.07.11,0,.23-.08.43.07.32,0,.43.07.21,0,.23-.07.32,0,.21,0,.23-.08.22,0,.32,0,.43.08.34-.06.21,0,.21,0,.23-.06.21,0,.11,0,.22-.07.21,0,.22,0,.23-.07h.1l.11,0,.23-.06.11,0,.21,0,.23-.07.32.05.11,0,.32-.05.22,0,.23-.08.1,0,.11,0,.23-.07h.11l.21,0,.22-.06H139l.1,0,.24-.07h.1l.11,0,.34,0h.1l.11,0,.23-.07.21,0,.22-.07.32.05.47-.13h.1l.11,0,.23-.06.2,0,.12,0,.22-.07.21,0,.47-.13.21,0,.34-.05.21,0,.45-.14.21,0,.24-.08.31.06.46-.14.21,0,.46-.14.32,0,.46-.14.21,0,.46-.14.33-.06.21,0,.47-.14.21,0,.45-.14.34-.06.21,0,.47-.14.21,0v-.11l.21,0,.46-.14.22,0,.45-.14.11,0,.69-.21.21,0,.69-.21.21,0,.46-.14.12-.09.21,0,.92-.27,1.24-.22-.11,0,.83-.23-.6.15,2.18-.6-1,.25.35-.15-.92.27,1-.48-1.81.45-.91.18-.09-.13-1.09,0,1.05-.37-2,.11.71-.42-.89.16-1.06.48-1.22.12-.67.11-.21,0-.05,0h-.4l-1.57.28h-1.2l.36-.16-1.33.1.6-.33-.28-.27.94-.38-3.67-.84-.42-.07-.69-.44.69-.22-1.1-.61-2.29,0-.62.44-.47-.41-.79.2.31,0-.9.18-.47-.41-.58.23-3.59-.06-1,.15-1.25.34-.11,0-.05-.34h-.54l-.95-.81h-.66l-.39.37-.74-.12-.27-.38-1.34.21-1.2,0-1.93-.11-1.88-.53-.3-.17-1.15-.31-1.28-.1-.27-.37-1.34.21-3.18-.53-.35.15-3.35-.78-.74-.78-.63-.11.56.52-.46.15-.22.07-2.59-.22-.72-.23-.94.39.17.36-1-.17-.47.24-.74-.12.46.52.08.11-.45.7.48.4.15.46-.43-.07.47.41-1-.26,0,0-.21,0-.3-.16.19.15-.51-.2.18.25-5.25-1.83h0l-.07-.06-.15,0-.08,0h0l-.16-.12-.32-.05-.7-.35-2.2-1.13-.11,0-.69-.44L87.16,181l-.41-.17-.68-.45-.19-.14h0l-.28-.19-.06-.09h-.1l-.18-.12,0,0h0l-.66-.43-.22,0-3.6-2.47L79,175.61l.57.3-.17-.25-.61-.32.17.24-.18-.14-.16-.34-.6-.33Zm13,8.51h0l.31.17ZM86,180.71l-.38-.29-.11,0ZM84.83,180h0l.13.08Zm.1.07.29.19,0,0-.34-.21ZM84.8,180l-.57-.34.49.31.08,0Zm-5.94-4.2-.65-.43.19.15Zm-.48-.17L79,176v-.1Zm11.33,7,.72.34.19.11Z"/><path id="path14267" class="cls-2" d="M133.68,37.2l-2.56.34-1.82-.74-1.6.38L126,36.45h-3.93l-1.72.58h-1.2l-1.73.58-1.06-.18,0-.54-2.27,0-.58-1.1-.67.11L110.69,38l-4,1.39-1.42,1.39-.65,1.84-.13.1-1,.91-2.37,1.12-2,.12-1.71,1.67L96,47.06l-1.43,2L92.89,50,90.1,52.92l-.78,1.39.39-.47.4,1.58-1,1.26-.23,2.58-1.82,3.06-1.74,1.24.94,1.56L86,66h1.31l-1.13.24-.38-.38-.55,1.31.76.13-.81.19,1,.29-.59.33.62.22-.29.37,1.55-.16-.9.18.59.41-.81.31.23.58.45-.13-.27.38.58-.24,0,1.53.58.42.58.43-.41.47.5.3-.14,1.4h.55l-.77.08,1,1.36-.21.62,1.63,1.25,2.94,3.87,1.68,1.05,2.29-.7,3.36.13,2.92,1.37,3.42-1,2.37-.48,4.06-.17-.71.31,1.57.39.9,1.12.59-.23-.61.34.73.23h-.55l.16.36.58-.24-.63.55.81,1.67,1.17.09.07-.43.14.46V86l.23.59.31-.6.36.49,1.51.14V86l.4.83.61-.34.3,1.36.9-.07.13.46-.42-.07.41,1.38-1.59,3,.63.22-.29,1-.52-.2,1,.71-.77.09-.25-.48-.61,1.64-.74-.13,1.11,3.13,2.92,4,.38,2.24.78.57-.77.08,1.26,4.13-.82,1,.48,1.62.45,1.81-.64,2-2.13,1.59-1.83,3.73-.36,3.42,3.15,7.82-.22,5.83,2.47,6,1.06,2.67-.09,1.18-.71.33.41,2.13.59-.22,1.4,1.32,3.79-.55,3,.83,3.22-.32,5.09-2.41,1.8-1.65.76-.64,1.92-1.1,2-3.35-.26.27-.33-.6,5.13-2,.91-2.89-.52-2.7.34-1.36.27.38,2.59-1.2,1.23-1.42,5.14-1.42.28-.39,1.83-1.87.22-3.12.35-.27.18-2.37.72-1-.82-.9-.38-.39v-.1l.06-2.84.43-.68-.42-.07.87-1.27-.9-1.78,1.12-2.1,1.72-2.44.43-.58,1.39-.52-.23-.58.85.15,4.14-3.89,4.07-2.25,3.22-2.93,4.88-7.56.16-1v-.55l.77-.08-.53-.09.48-2.19-.69-.45-1.86.77-2.93-.16-1.38.52-.9-.49-1.84.56-1.87-2.39-1,0,1.39-.52-.08-.78L175.29,79l-1.39-.78-.23-.59-.26-.36-.21.62-1.42-5.15-1.7-1.6-.23-3.73.28.26-.57-1.73-1.68-1.7-.27-1.57.41.07-.91-1-2-5.46-1.31-2-.16-1.33v0a.31.31,0,0,1,0-.13,3.62,3.62,0,0,1-.09-1l0-.16a2.74,2.74,0,0,0,0-.5H163l-.2-.7-1.25-.32-2.73.62L156,49.38l-2.53-.54-.32-.71-2.27-.71-.21-.7L148.86,46l-2.4.68-.32,1.89H146l-1.62.5L143,47.93l-2.84-1.24-.51-1.51L137.22,44l-1.49-.15-2.66-1.75-.1-.68,1.93-1.07-.63-1.43,1.06-1.12-.93.38-.72-1ZM92.89,50l.11-.12-.38.27ZM113.36,35.6l0,0,.06,0ZM99.28,43l-.84.41.57-.13Zm-.85.51-1.24.88.67-.1Zm-2.91-.17-1.11.15v.55Zm.22.59-.28.39H96Zm68.07,17.92.24,1.8-1.53.07-1.68,1.56L162,63.77l1.32-.1Zm-73.17-.61.91,1L92,64l-1.41-2.64-2.44-.31Zm83,15.34,0,.45.61.21-.54-.64ZM104.44,65.25l.43.73-.44,0Zm27.49,7.49.13,1.11.7-.21-.09.52,1.44.46-2.06.64-.79-2.43Zm37.55,9.07-.4,1.12-.39-.93Zm-53.61-7.43.82.89-.56,1.43,0,.22-.06-.24-.22-.69.77-.74Zm-9.09,2.27,1.34,2.29.08.23.66-2-1.22,4.58.09-.52-.09-.12-1.08-.73,1,.5.15-.2.35-.8-.16-.36-.3-.17-.74-.12,1-.15-1-.72-.05-1-1.17-.2,1.09.07Zm11.72,2.74.4,1.49-1.29,3.8,1.21-3.93Zm-18.77-2.3-.62,1.08.16.36.46-.25-.34.81-.51-.84ZM166,94.17l.09,3.94-.91-2.33.82-1.61Zm-44.81-6-1,.48,0,.11.38.29Zm15,4.81-1.56,4.64,1.59-2.24,1.5-.5,1.27-.44.35-.17,3.52.31h.13l0,0,.19,0,3.09,3-3.28-3-.15,0-3.93.17-1.21.13-1.67.81L135.88,97l-4.32,3-.36,1.48.13-1.4,3.15-2.51Zm21.78,3.8-.52,1.1-1.34.87v-.76ZM161,98.44l-.68.12.13.56-1-.5Zm-.54,1.87.12.57.77,0,.23,1.13.83-.31.15.36-1.34.21-.37,1.56-1.41.63,1,.5-.84.41-.71-.34v.76l-.48.25.24-.83-.87-.58-.8.83-.08-1.43,1.18-3.17,1.15-.34.48.4Zm-5.79.11-1,.7.34-.69ZM121.56,96l.5.3-.59.24Zm14,3.67-.54.58.5.29-.8.85.05-1.63Zm17.36,2.94.4.82-1,.6Zm-.09,3,.28,4.19-.55.66,1.17,1.39.36,3.12-1-.6-.19-2.11-1.16-2.15.67-3.38-.38.38.79-1.5Zm15,6.57-.32.7.43.62-.07-.88Zm-12.15,1.09.81,1-.92-.37Zm-3.85.89.61.2-1.17.46Zm-1,.05-1,1.25h-.64l.23-.72ZM158.3,117l.6.87.13,2.52-.8,1.49.1,3.29-.88-.58-.23-3.19.81-.85,0-2.82,0-.45.11,0Zm-7.05,1.1.11,0-.11.64-.57.12Zm20.5,4.34-.3.49.26.37Zm8.2,2.36-1,.59-.36,1.47-1,.6-.38-.39-.18,1.06-.33,0-.83,1.16.2-.62-.87.72.12.46L175,130l.22-.61-.85.4-.13.74-.34-.5-2.66.32-1.42,1.94-.45,3.95-2,1.72-.89,1.49-.49,4.16,1,.82,3.09-.23,7-9.6.58-1.53.73-.43.36-2.11.43,0,.08.88.67-.76.45-3.94-.65-1.31.3-.5Zm-6.9-1-.35.16.36.38ZM147.89,127l-1.54.18-2.11,1.5,1.67-1.57Zm38.37,12-.58.77.61-.34Zm-2.89.93-.55.11.43.62Zm-43.58,2.74-.43.58-.54-.27h0l.33.36-.49-.3.16-.06,0,0,0,0,1-.31Z"/><path id="path8205" class="cls-3" d="M228.91,113.08C236,74.33,216.37,32.52,182,13.29c-32.14-19-75.2-16.87-105.12,5.56C46.33,40.36,31,80.58,39.1,117c7.51,37.76,39.72,69,77.74,75.14C155.76,199.55,198,180,217.28,145.33a96.26,96.26,0,0,0,11.63-32.25Z"/><path id="path8203" class="cls-4" d="M100.17,6.32,133.73,12m0,0,61.71,10.44m-136,12.83,58.11,9.82m0,0L224.38,63.14M38.6,80.72l67.11,11.35m0,0,123.42,20.87M43.35,130.52l58.11,9.83m0,0,106.81,18.06m-136,12.82,15.13,2.56.2.15,18.2,3.07m0,0q30.9,5.28,61.73,10.33m-49.8,4.76c-6.8-1.52-9.72-8.83-11.86-14.86-2.86-9.42-3.69-18.21-4.31-27.94-.87-23.84,1.92-48.33,7-72.31,4.28-18.82,9.8-37.47,18.42-54.16,4.22-7.6,9.26-16.46,17.52-20.55A10.3,10.3,0,0,1,150,1.57M117.75,192.1c-13-2.18-24.16-9.2-33.06-18.88C75.41,162.7,69.1,149.48,65.52,135.4c-4.77-19.75-4.37-40.19.48-60.28,4.57-18,12.71-34.85,25.07-49.11C100.39,15.73,112,7.11,125.42,3.19A54.13,54.13,0,0,1,150,1.57M117.65,192.08a93,93,0,0,1-49.31-25.21,97.18,97.18,0,0,1-27-50.4A98.56,98.56,0,0,1,66.91,29.38,94.57,94.57,0,0,1,119.6,1.55a90.8,90.8,0,0,1,30.37,0M117.86,192.12a90.1,90.1,0,0,0,51.78-6.82,96.63,96.63,0,0,0,40.66-35.37,101.72,101.72,0,0,0,15.89-49.24,99.72,99.72,0,0,0-10.42-49.78,92.82,92.82,0,0,0-32.49-36.42A89.26,89.26,0,0,0,150,1.57M117.75,192.1c12.59,2.13,24.83-1.31,35.64-7.91,16.58-10.47,28.71-27.63,36.22-45.49A139.14,139.14,0,0,0,200.07,73c-1.69-19.47-8-39.76-21-54.51C171.22,9.72,161.49,3.54,150,1.57M117.75,192.1c5.09.42,8.69-4.86,11.28-8.76,6.76-10.49,10.48-21.75,14.34-33.29A417.64,417.64,0,0,0,158.53,75.2c1.71-17.48,2.76-35.09,1-51.86-1.11-7.1-1.81-15.28-7-20.58A5.61,5.61,0,0,0,150,1.57"/><path id="path7440" class="cls-2" d="M111.32,53.84c-2.09-2.32-2.74-3-4.53-4.85-1.15-1.18-2.09-2.17-2.09-2.19s.78-1.87.8-1.88l2.08-.55,2.07-.54,3.88.65c3.77.64,3.89.66,3.88.73a2.2,2.2,0,0,1-.08.23c-.49,1.32-2.19,6.6-3,9.27-.27.92-.52,1.71-.54,1.76s-.13,0-2.47-2.63Z"/><path id="path7442" class="cls-2" d="M118,61.34l.1-.66-1-.5-1-.49-.2-.26c-.26-.37-1.6-2.17-1.84-2.49l-.2-.26,0-.19c.27-.93,1.36-4.46,1.78-5.78.53-1.66,1.81-5.47,1.85-5.51s3,.47,6.62,1.09l6.6,1.11v.08c0,.05,0,.73,0,1.52l0,1.43-.29.83c-.15.46-.3.86-.32.9a1.86,1.86,0,0,1-.46.26,2.18,2.18,0,0,0-.41.23s.18.63.4,1.36l.41,1.32.95.42,1,.43.14.54a2.17,2.17,0,0,1,.11.56l-3.84,1.46-3.82,1.43-1.5.88-1.5.88h-1.21c-1,0-2.37,0-2.59.07-.06,0-.06,0,0-.67Z"/><path id="path7444" class="cls-2" d="M117.65,45l.49-1.39c.59-1.64,1.58-4.28,2.12-5.64l.42-1s.32-.11.7-.24l.69-.23H126l.86.37.86.36.78-.19.83-.18.93.37.88.36.58-.07a4.33,4.33,0,0,1,.62-.07,2,2,0,0,1-.35.28l-.39.29-.31,1.19-.3,1.19-.69.44-.69.44.34,1.12.34,1.11.38.35c.21.2.39.36.4.38a11.82,11.82,0,0,1,0,1.31v1.28l-.21.1-.21.1.08.11a.57.57,0,0,1,.07.13s-3-.47-6.59-1.08C118,45.09,117.62,45,117.65,45Z"/><path id="path7446" class="cls-2" d="M111.73,43.31l1.74-.43.1-.53.1-.53.67-.13.66-.14,1.16.2,1.15.19.34-1.95.33-2-.21-.23c-.12-.12-.21-.23-.21-.23l.81-.27.79-.26h.56a4.12,4.12,0,0,0,.65,0c.07,0,.1,0,.1,0s-.2.53-.44,1.13c-.59,1.48-1.39,3.61-2,5.38L117.49,45l-3.75-.62L110,43.74l1.74-.43Z"/><path id="path3178" class="cls-5" d="M177.31,82.76l-3.56-3.85-2.42-.52-.71-.7L170,78.87l-1.49-.48M194.92,64l.32.71M180.6,75.27l2.56,1.63-.08,1.73,3.47-3.77,7.87-1.5.63-3-.67-1.2L190.43,68l-2.11-4.28m5.53-24.32,2.28.05,1.3,1.31.14-.19.3.81m3.46,7.23-.28-.92-4.84-3.54m-18.05-4.69-1.73-.07M175.86,37l-3.16-1.3-.67.1m7.42,3.11-1.64-1.26-1.18-.09-.77-.56M188,26.12l.78-.09M157,19.57l-.21,0m.69-.21-.48.25m-.21,0h-.65m0,0,.26.37-.58.23m4.34.08-2.68-.89m-1.66.81-.36.81-2.24-.27m-2.2-2.44.9-.17,2.65.44,1.57,1M62.75,161.82l.56.54m.28.26,2.7,2.74m-5-5.09-.09-.13,1,1.15.56.53M47.64,134.66l1.07,2.69M50.4,137,50,136l-.12-.56-.68-1.1-1.52-2,0,.31-.83-1.55-.33,0m0-.33,0,.33,1.16,3.46m-4-4.26.06.34.68,1.74,2,4.47.72,1.54.54,1.29L48.2,141l1.43,2.53,2.95,5.07.16.36,2.2,3.09.15.35L56,153.6,57.05,155l.81,1,1.33,1.75.18.25m81.37-10.52-.28-.27m0-.44,0,.44m.28.27.68.44.55-.67.78-.09m24.65-26.64.69-.21m-21.64,15.29.17.24m-5.39,2.9-.88.07m8.36,4.68.12-1.39m9.94-20.75v0ZM139.61,140l.74-1.18m-.16,7.38.23.58m-.08-19.5-4.69.08m18.49,2-.48,1.56m-22.09,6.38-.43,2.55m12,5.28-1.55.18-1.35.86m24.68-24.9,2.53-.77m-20.78,15.32,2.81.8,2.17-1.26m-6.86-2.58,0,1.75,1.68,1.05m-7.71-7.84.38.93,2.74-.73m8.83-2-.09.53,3.72,1.82-.18,1.06m-2.54,6,.31-1.15,1.11-.79,0-1.75.67-.75m-4.23,5.7.2,3.3-.51,1.77-.41.47-1-.28-.85,1.16.83.9.63.11.23-.72,1.25.32m-7,3.49.44,0,.67-.76-.77-1.22m-1.86-6.41,1.46-1.49,3.93-1.41m-6.28-8.57,1.26.32,1.06,3.34,2.07,2m-13,3.25-.19,1.16.77,1.22-.36,2.12m6.76-12.9-3.69-.08-1.18,5.68-1.48-.25m6.75-5.83-1.93-2.72,1.07-5,3.18.53.69-3.47M139.61,140l-1.33.1L136,138.93l-1.92,1.74-2.07,0m3.78-13.3-2.19-.58m8.29,1.18,2.7.78,1.64-1.35,1.59-.39.48-.9,2.42-.13,0-1.1,5-.78m3.44-6.17.18,2.76m5.46.59-.71-.33-1,.59-2.35-.94h-2l-.61,1-.09,1.84,1.39,2.74-.64,1.85-1.2.67,0,.86-1-2.14,1-2-1.38-.23-1.11-1.82.91-1.48.92-.28.09-2.49.73-.42-.27-1m-7.62-1.29,0,1.2-.87,1.27.72,1.53,1.32-.1-.46,2.1-1.25-.32L147,118.59l-.87.62L145,118.8l-1-.6.13-.75-1.75,0-.28-.92-3,.15.35-1.47-.21-.68m-8.19,25.29-.61,2.94m0,0-1.4.53-1.35-.34-1.13-.41-.35-1.15-1,.71m7.08-9-.63,3.05m1.81-9.38-1.68-.4-.61-.86-7.11-1.1-.83-.9h-2.61M172,96.78l1.33-.75,1.6.81,2.92-1.14,1.9.32,4.89-4.4-1.38-.23-4.9-3.22-.47-1.06m-23.72,15.37-.62.44m8.17-2-.46,2.1m1.54-3.33L161.66,101m-8.16,1.89-.71,1.62m10.63-10.72,1.61-.5.49.89.43.12m-10.53,10.11L156,104l-.35-1.8M153.91,114l3.05,2.59m5.82-22.21,1,3.11-.13,1.39-.9.83M165,93.33l-1.61.49L161.81,95l-2.08.08-1.62-.71-.6.34m-4.57,12.83-.31,3.11,1.28,3.37-3,0m2.07-8.36v1.85l.53.09,2.21-2.13-.6-.32.34-.7-.92-.37-.57.77-1-.5v1.31m4.5,12-.47-1.06,2,.88.14.46m5.26-33.08-.5,2.32-1.41,0-.39,1,1,.39,1.32,1.85.69,2.41L166,93v1.31l1.64.6,1.48,1.56,2.17.69.72-.42m-24.7-14.85.17.25-.53,1.87,1.16.2-.21.62,1.67,1-.21.62,1.78,1.71-.06,1,1.17.85.64,2,1,.7,2-.31,1.79,2.26-.51,1.77.75.67-2.47,1.76-1.26,3.6,2-.32,5.29.9,5,4.21-.14.85,2.11,2.31m-29,4.14-.37-1,.7-3.47-2.91-.82M150.86,114l-1.17,1.11.12,1.22M110.75,82.08l-.34,0m-.67.1-.7-1m16.73,24.06-1.33.11M112.16,82.1l.52-2.42M126,103.27l-1.17.46-.09,1.18-.54,0M111.26,75.85l0,1.64-.56,4.59m11.82,8.64,2.38.73-.22,1.92L121.65,93m-6.9-16.52-1,1.36h-.55l-.53,1.87m-3-4.1-.36.81.52.2L109,81.24m24.4,2.5-2.21,2.13.45,3.78,1.41,2-.22,1.92-2.52-1.19L128.23,92m8.22,1-1.68,4.83-3,2.22-.93,2.89-2.38,1.23-.25-1.13-1.76.79-.92-1-1.45.85M125,91.45l3.19.43-.39,1.67,1.84.1.17.9-1.24,1.53.94.92-.22,1.27L128.3,100l-.53-.74-.51.46-.83-.25-.38-.94-.46.79L124.1,99l.28,2.23-.7-.34-.77.64m7.51-22.47-3.81,5.13-.67.1L125.18,83l-1.38.42L122,84.73l-.85,1.82m15.65,22.68L136,109l-.59,1.53-2.89-.27-.92-1.68-.27-2.22-5.59-1.06M109.5,74v-.11m-.1.64.09-.53m.35,1.14-.44-.61m6-.84,1.45-2.8,2.44-.24m-5.9,2.7.26-.93.78-.09m-1,1-1.54.07-.65.65-1.68-.39m1.34.44-.37.92.74.78m20.92-2.67-.11-1.32L136,68.6l1.78-5.36-.86-2L137,59M114.46,72.36l1,1.36v1.86l-.69.86m-4.9-1.27-.18.41m9.65-4.9,1.3.66.56,1.18,1.49-.4,2.8,1.45,1.85-.67,2.77,1,2.09-.74.49,2.26.68.44-.3,1.15-1.5.51-1.13,1.55m-27.83,3.57.32,0m.34-.7-.34.7m1.76-5.91,0,1-1.72,2.44.35,1.8M93.06,75.28l-2.46,2.3m14.31-2.81-.24,2M94,77.29l-.21-2-1.57.27m4.59.56L96,75.88l.19.8-.55.67-.6-.32-.86.61L94,77.29M88.87,73.7l1.5-1.17,1.83.1.58,1.73-.53,1.21m3.08,1.72.07.89-.67.75,1.5,1.45-.63,2.4M97,73.43l-.46.8.4.17-.07,1.73m7.92-.51-.61-.86-2.3,0-.44-.62M175,96.86l-1.7,1.67m0,0-1,6.14.64,1.42m-20.46-14.9-3.09-1.06-.51.46-1.46-.36-1.73.58-.8-.46-1.13.89-2.78-.9-.85-.8m3.36-8.25-1.51,1.16h-.65m-5.72,1.65,1.6-.5m0,8.39.06-1-3-.29-1.1,2m2.44-8.62-.34-.61-1.78.25-.26-1.68-1.71-2.14.53-.56,2.44.41m5.64,9.77-.86-.69-1.7,1,0,1.52m3.8-8.94-1.73-.07.14.45-1,.92-1.5-.15m-27.61-9.89-.19-.14M89.76,68.4l.11-.63m6,1.67.18-.4m-6.32-.64-.46.14m9.6-23.31,5.83,1m-3.93,27.1-1.11.14M96.08,69l.49.95m3.12,3.47.23-.73h-.66m-6.38-7.94L92.7,66.5M108.6,51l5.31,5.91m-4.36,16.79-4.46-.65m-12-4.31-.11.63.58-.23.34.6m0,0,.62-.44,1.39.13m9.16-.08L107,68l.6.32.21-.62,2.16-.51,1,.29m-11.79,5.3-.78.74-.54-.64-.92.28m-9.73-3L88,69.4l1.45-.19-.11-.67m15.89,4.54-.28,1.69M103,65.31l.55-1.32-.26-.37,2.75-13,2.54.43-4.09-4.17M103,65.31,97.47,64l-.18.41-1.91-.32-.4.47-.58-1.07-1.21,1.32m-6.78.81,2.19-.07,1.48.91-.79.19-1-.71L86,66.45M96.57,70l.35,1.15-.53.56.55,0,.2,1.35-.17.4m-4.38-6.94.75,1.32-.26.94-5.33-1.34-2.1.19m7.54-2.75L91,61.31l-2.68-.23-.55.66m13.68,12.44-.61-.86.9-1.48-.1-.67,1.73-.58,1.06-1.78.67.55M89.62,54.44l.56-.77,5.08.86.84-2.37,1.73-.57,1.49-3.67,4.45.75,1.63-3.86L110,43.62m79.19,21.67.12-.09m-4.9-9,.39.29m7.83,7.74.78-.08m1.55-.17.32.7M180.6,75.27l2.56,1.63-.08,1.73,3.47-3.77,7.87-1.5.63-3-.67-1.2L190.43,68l-2.11-4.28m2.45,10.65-.11.63,1.58,3.54M183.31,56l-.53,1.22m11.67,6.33,1-.6.38,1.59m-18,20.8-1.72-.18,0-.87,1.14-1.55,1-.15m2.33-7.34-1.67-.39-.22,1.27-.6.33m16.27-7.37.22-1.92.56-.13-.33-1.25.57-.12m-10.29-9.36.18.25m-7.45,30.53-.56-1.19,1.07-1.23m-8.67-18.64-5.22-.91m3.08-11.78-.21.61M152.07,63l9.53,1.62.27-.29,0,.34,2.54.43M167,53.27l.19.79M150.14,66.75l-.81,6.07-1.73-.08-2.44,4.16,1,.5.28,2.87-2,.1-1,.92M153,50.9l.24,1.13-1.51,14.12-1.59-.27,0,.87-5.81-4.25m22.94-8.21,1.55.48.91-.83,1,0m-61.21,20,0-.21m23.88,1.1-.78-.57m-13.4-12.17,2.51,0,3-1.77m-8.14,7.55-5.59-.4m13.73-7.15,7.79-2.93m-21.2,10.13v1.86l1,1-.62.44.85.8.86,0,.09,1.43m20.86,6.69-.81-1,.41-2.43-.61-1.52m-16.79-7,1.45-1.5,1.16-4.26-1.54.06.24-1.37-1.91-1-2.13-2.86m30.42,5.58-5.62-4.11-3,.91-.91-1-2.24-.92-.33-1.25-1.93-.87-.77-2.53.83-.4.64-1.85-.09-3.29m-17-11.26v-.11M110,43.62l3.41-.84.17-1.06,1.47-.3,2.22.38.63-3.7-.46-.52m67,18.62L183.31,56m-5-14.34-.79.19.82,1.56-.19.51L180,46.86l1.22.53-.73,2.38,1,1.59,1.76,1.17.6,1v1.2l.42.07.11.67.72.89m-18.78-4.94.31-.67-.31-.21m1.81-3.41.46.2a.47.47,0,0,1,.07.43l-.17.53c-.09.22-.17.34-.34.39l-.76-.06M173.05,51l.88.59m-5.59-1.91L168,51.26l0,.54-.48,1.56m-1.46-2.3.93,2.21m-13.26-4.64-.78,2,.07.23m17.68,3,.1,0,.66-.65L170,51.6l3-.58-.79-1.76-2.47,1.1-1.34-.77-.18-.77m-37.09-1.94,0-2.72-.84-.79-.63-2.07,1.34-.86.63-2.4.74-.53m-1.52,9.65-.09-.12,1.53-.72.45-1.34,2.08-.74.16-1m94.73,58.59.1,0,0-.44.16.35,0,1.52.14-.2,0-.86m-.68-5.67.13-.74m.07,6,.11,0M137.16,92l-.71,1m94.2-.08-.06.32M228,76.32l0,.44m-.28-.92.28.92m2.53,18.5,0,.44,0-.33,0,.55m-.27-7.45.07.23-.07-.23m-1-5.18,0-1.09.11.67,0-.55m1.25,10,0,.55M228,76.32l.16.35.12,1.87.16.36m1.5,5.91.11.67m.54,7.72,0,.1.09,1.43,0-.33,0,.86M228.44,78.9l.15,1,.22,0,.43,3.23.09.12m-.28-3.53.11.67.28.92.5,3.46m.44,8.35L230.16,90V88.66l.11,0M228,75.22l.33,1.26,0-.11.09.78.21.69.15.35-.12-.56.14.46,0,.44.21.69.1.67-.09-.13m.33,2.56,0-.44.09.13.27,1.57.39,2.89.22,2.54.05.34V88.7l-.07-.23m-2.23-11.92.21.69.11,0-.51-2.16.09.12-.12-.56.23.58-.11-.67.12.57-.19-1.45.2.79.08.13L228.5,76l0,.21m1.14,19.68.1-.64m-1.93-19.48v.1M217.18,61.75l3,3.66,0-.44,1.1.62m1.55.48.35-.16L223,64.8l.08-1.08m-1.87,3.93.71.34-.67-2.51,0-.21.95,2.12h1.2l-.7-1.65-.87-.69,0,1.52m2.56-1-.14-.46.25.48.46,1.16.12-.08L225.5,68l.38,1.59.14,1.11.44,1.92.26-.28.39,1.59.26.37.1,1.33.3.16m-4.71-12,.35.5v-.65l.16.35.12.56,0-.21.25.48,0,.55.47.4.18.9.3.82-.39-.29,0,1,.89,4.4-.37-.39.59,2.93-.07.42M216,61.55l-.18.41.32,1.36,2.32,2.35.74.13,1,1.36,1,.49m8.51,27.57.08-2.38-.27-3.53-.42-2L229,85.09l0,.21-.77-3.83.12-.08-.31-2,.19.14,0-1.09.09.12m-4.11-2.76-.54-2.6-.42-.72-.16-1-.42-.72.15-.85-.6-1L222,67.67l.71,1,.05-.31.49,1.6,1.18.75v1.85l.44,1.27-.12-1.22.11,0,1.06,4-.17-.24,0,.44m-16.55-7.7-.51-.2-.39,1m2.65-9.25-.61,3-.81.3L209,63.3l-.42,1.24.1.67.69.44.07.88.67.55.73,2.09-1.62-.06m-4.71-9.51.07.23-1.91.33-3.49-1.24m2.12,7.43.06-1.62,1.25-.33,0-.76-.7-.34-.28-1.57-1-.6-1.48-2.21,0-.21m15.25-14.84.21,0L216,45.55l-.66-1.21m.73,16.9.57-.13.54.64m-9.59-18.61.18.25m-4.73-10,.57.53.51.19-.05-.33.82.9m10.18,25.46,1,1.15,0,.31m-9.8-27.68.81.36-.18-.25m-1.83.56-.07-.88m.53,5.86.5-.35.6.32-.44-.62-1.18-2,1.09.62.16-.3L205,35.41l.23-.07-.53-.75.34-.05.63.76,1.46,1,1.2,1.29L210,40l1,.49,1.14,1,1.58,2.22.73.24m-6.52-.13,0-.21-.51-.85-.1-.67-1.5-2.1-.39-.28M201.73,45h-.11m-1.18-1.4-.28-.27m1.59,1.58-.32-.06m1.27-.43-.16.29m-3-1.38h.65M198,41.41l.22.58.32.06,1,1.25m-7.44-5.61,1.78,1.71m9.36,5.83.37.39Zm.13-4,1.27.87m6.46,15.24-.18,1.06m-17-19,2.28.06,1.3,1.31.14-.19.3.81m-1.66,2.77-1-1.59-.51-.2m6.25,3.56.07-.42.73.23,0-.76m0-.1-.2-.8.39.29.3-.5.46.52m-1.79,1.54.78.57.67,1.2.1,1.33m.92-2.9L204,46l.86.69.8-.19m-5.17-2.94.05.33.6.32-.15-1,.81-.95m1.37,2.84-1,.26.24.48,1,.28m1.23-4,2.12.35.86.69m-5.84-.87-.12-.57.35-.16,1.5.8-.4-.83.26-.28m-.8,3.45,1.2.64.67-.75-.92-.38m0,0-.72-.88.12.56-1.18-.74.34-.71-.3-.15m-.42,6.35-.28-.92-4.84-3.54m14.87,8.61-.2,1.17-2.11-.36.28.92.4.17.14,1.12,1.48,1.55m-16.41-15L193.42,42,193,40.89l-.09-.13m4.48,9.58-.62-1.52-.74-.13-.46-.51M210.89,58.4l.3.81-.25,1.48M213,56.15l.81,1-.19.52-.5-.31.88,1.89.13-.08.93.92m-7.25-9.94-1.82.46-.09.52.86,1.35-.26.93.31.71-.95-.16.77,1.22-.58.23.37,1.69-2,.76,0,1.74m-5.29-.89.57-1.43-.23-.58-.94-.27L197.7,54l.21-.62-.49-.3-.21-.69.35-.15-.22-1.89,1.5.8.14-.85,1-.37-.12-1.22.64-.54,2.29,1.26.51-.46.37.39.52-1.77.82.91.88,1.89.71-1,1.34.44m-2.52-10.22-.1,0,.12-.09m7.31,16,.22.59-.5-1.51-.67-.54-.65-1.31-1.52-.69L209,50.89,207.63,50l.39-.37-.93-1.57-.83-.25-.65-1.31.12-1.39,1.13.4-.17-.9.74.13.49-1m-32,.69.26.37m11.53-8.29,1.92-.43,1.08.72m-1.11,4.61-1.89-4.9m-9.54,3-1.73-.07M177.11,29,177,30.68l.7.34m.61,10.55,1.13.41.68,1.1m-6.5,5.65,1.29-.55V45.57l1.22-.77m3.28-5.87,1.76,1.17.55-.67m-3.6,0,1.64.61-.35-1.15M175.86,37l-3.16-1.3-.67.1m17.56,5.59-.53-.09-1.79-1.61-1.4.52M177.74,31l.25.48,1.51.69.72.88-.44,0,.88.58m-1.21,5.24-1.64-1.26-1.18-.09-.77-.56m.22,7.66.48-.25,1.57.37.35.5.46-.14M180.5,43l-.17-.9-1.18-.75.37-.26-1.36-1.65m.33-10.28h.1l-.21,0m0,12.51,1.83,1.4,1.68-.91.57.53-.23.72,1.07.73m-9.08-5.57,1.4.13,1.13,1.06.26,1,1.37.89m14.53-.92-1.59-.92-.35.16.58.42-.6-.32-.65.66.38.93-1-.28m5.93,6.77-.93-.92-2-.89-.45-.51-1.63-.06-.56.78-.76,0m-13.23-2.24-2.67.31m-1,4.62,1.4-.52m-.4-4.1-.88.07-3.25-.76.09.77L168,45m37.1-13.39.86.69,1.37,1.54-.26-.37.46.51M200,31.85l.19.14-.33-.6,1.07.73m0,0,.46-.14L203,33.34m3.81.64-.26-.37-.83-.9-1-1.49.37.39m-.13,2-.26-1,.79.46.65.65.09.12m-17.76-4.41-.28-.27m-.81-3,.32.06m-.13,2.7.62.21m-.49-2.91.35-.16m8.5,2.53L199,30.8m-4.78-2.65.42.07.11-.64m-7.2,1.4-.88-.59m3-2.87,1.16.2m0,0,.95.81.35.5M188,26.12l.78-.09m5.94,1.55.27-.28.24.48,1.27.87M188.82,26l1-.15,0-.34M192.13,27l.73.23-.27-.37.65.65.57-.12.42.73M199,30.8l1,1.05m-11.57-2.39.12.56-1.15-.3m-.75-1.33.47-.24-.52-.75.86,0-.9-.48,0-.21-.51-.19L186,26.2l1.41,0m-1.6,3-.19-.14m.32.05-.13.09m-4.05-1.12-.64-.11m2.17,1.35-1.53-1.24m-4.64.41,0,.44m4-1-.37-.39-.37.27-1-.5m8.09,2.35-.07.42-1.46-1m-.32-.05-.16.3L184.5,29l-.3.49L183,28.75l.23.59m-4.87-.17-1.3-.66m2.26-1.14-1.36,1,.51.85m-54.13-.56-1.66-1.15m-8.86.25,2.22.37.44.62-1.16.46-1,1.57h-.65l.3.82-1.69,2.22m58.1-5.53.14.46m0,.1,0-.1m-.25-.48.11,0m-21.89,3.92.38.28-.39.37m2.81.8-2.21.17m7.33,4.94-.14.2m-.84-2.1-.25.17m.84,2.1,0,.32m1.7,2.79.22,0m-2.75-5,.06.34m1.72,4,.3.16m-1.48-3.51.43.07m-.34,1.35.05.34m.93.92.16.35m.21.69.16.36m10.56-9.65-.16.3m-9.57,9.59.53.09m-1.92-2.17,0,.21M170.3,29.32l.28.27M159,28.06l-.42-.07m1.12,15.22.39.28m-2.59-16.23-1,.16m1-.16,1.08.73m11.75,1.33.19-.51m-.65,1.31-.69.21v.55m.68-.76.74.12v-.65m-12.39,5.64-1.25-.32-.81.29m12.07-7.65,2.06.68m-11.7,2.67.46-1.14,1.07.28-1.12-2m9.14-.63.09.12M151.91,35l-.07-.88-.56-.53.92-.93-.72-.89.4-.47m-3.89,5,.28.27,1.17-1.11L148.67,33l-.21,0m.93,2.22,4.16-.16,2.07.67.4-.47.46.51-.78.74m-6.56-10.15,1.68-.26,1.57,1m-.76-.67.85-.51-.21-.69.71-.32m-3.79,3.72,1.08.07,1.09-1.34,1.28-.44,1.94.77,2-.21,1.57,1.68.05,1.64,1.83.75m-11-3,.21,0L150.58,30l-.18.4,1.56.48.15,1,2.93.71,1.91-.33,1.81.85m-9.42-8,.11,0,1.64,0,1,.6m-7,1.75-1.13.24-.46.79-2.1-.46m6.21.62.61.86-.6.34m.05,1.64.87.69m-1.93.43.74-1.18.76,0L147.7,31l.43.07-.57-.53.43-.58-4.18-1,.33,1.26,2.41,2.47Zm-13.09-3.73h.11m1,3.22.55,0m.87-1.27,0-.21m10.05-4.72-.08-.13m-8.67-.26,0-.21m9.71,10.78h.55M136,30.27l-.16-.36m-9.56-.74-.3-.16Zm1.78.41-1.78-.41m8.33-7.41-.39.37M126,29l-1.67-.4m18.13-4.22.92.37.5-.35,1.55.48.51.84m-4.4,2.2-.19-.79.47-.25-1.44-.46-.14-.46-2.05-.13m-5.57-4.43h-.1m2.13.9-1-.16-.23-.58m14.62,3-2.28.59m2.62,7.74-.52-.2-.47.9m.41,2.68.11,0M134,26.24l-.23-.58-.9.17,1.63-1.25,1.87-.12,1.21.53m7,1.94h.55l0-.87.9-.17,1.54.58,1.55-.17M137.6,25l.37.39.48-.24.81.35,1.24-.22.79.46L141.2,25l1.29-.54-1-.94-.22-.59m-7.54,5.92.29-.39-.81-.36-.07-.88.81-.3-.25-.47,1.29.11.85-.51.4.83.57-.78.9.48.55-.67-1-.39.19-.51m-2.12-.36,1.23-1.43-1.82-.85.09-.53m7.08,5.12.92.37,2-.31,1.59,1.57H149m-1.51-4.61.74.78.57-.12.56.53m-24.6-10.37-1.27.44,1.43.57m31.79-.61-.16.3m.53.74.19.14m6.88,8.89,0,.11M157,19.57l-.21,0m.09-3.14.34-.05M161.3,22l0,.21m-3.75-2.92-.48.25m-.21,0h-.65M161.3,22l-.67-.55m-4-3.61.29-.38m7.16,7.2,0,.54M161.5,24l-.86,0m-3.73-7.6,0,1.1m-4.39,2.74-.08-.78m0,0-1.36-.34M160.64,24l-.23.72m1.85-2-1-.5m-2.11,2.15,1.26.32m3.7.63,1.11.51m-9.05-6.32.26.37-.58.23m6.41,2.61-1.32.1m0,0L161.5,24m-6.17-.83,1.95.66m-1.95-.66h-2m7.26-1.72-.44-1.27m-4.72-12,.6.32,0,.44.83-.4m.58,10.76-.85-1.45m2.55-4.14-2.42,1.44m.49,8.69,1.87.53m1-4.18-2.68-.89m-.85-1.45L154.85,17l-.89.07M161.5,24h2l.65.66m1.11,1.16.53.75,1.82.19.54.64m-12.26-7.3-.36.81-2.24-.27m-2.2-2.44.9-.17,2.65.44,1.57,1M156.1,9l0,.44.9.48-.41.48,1.58,2.22-.37.27,1.37.88m-4.06-5.58-.88.06-.53.57-1.47-.36L151.59,8l-.46.14,1.9,1,.47,1.72m-2.37-2.69-.37.26M153,24.87l.84-.51-1-2,.78-.74-.85-1.45-2.86-.48m-11-2.52,1.43.57m-5.66,3.83-.14.2m.35-.81-.72-.89-1.71-.18m11.66,2.52.2-1.82-.5-.3.39-.37m-11.68,1.51L131.47,20m2,1.54-.07-.23-.78.08m18.11-13,0,.11-1.15-.3-.16.29-.74-.12-1,.91H147l-.92.94.27.37-1.08-.08-.73.43-.3,1.14.48.41-.59.23v.76l-.57.12-.44.69-.74-.13m-1.15,8.73-.14-.45m8.84-2.75-.42-.08m-14.74,2.19.09-1.18.44-.69,1.24-.22-.26-.37.88-.73-.71-.33m4.64,4.16,3.38-.08,1.22.53.11.67.38-.37.83.25.46.51m7.79-15.78.21,0m-.11,0-.21,0m-111.8,110-.63-.11m1.93,8.5,1.13.41m-.27-2.88.4.18.68,2.4m-5.47-13.34.81,1,.44,1.92.33,1.91m.18,3.41,1.29,2.06.48,2.92m-1.94-5.23.26.37m.38-3.53.44.62.65,2.61.61.22.77,3.83,0,1.52m.81-.3-.37,1.57.21,2.65m-6-22.57.64.1.15,1.66.6,1.63.22,3.19m-.87,3.23-.59-4.24.53-.56m-.72,5.54-.15-1.66.42.72.35,1.15-.19-1.44.21,0,1.23,3,.44.62M37.66,99l.21,2.64.32,5.18.12,1.21.19,1.45.17,1.55,0,.34m-1.22-14,0,1.74.17.25.13-.74m.41-1.13.06,2.19.12,1.22.18.9.28.26.49,1.61.46.51.18,2.11.32,2,.1,0m-2.6-9.7L38,97.44m.49,12.6L39,112.4l.19.8.26,1.68,1,4,.16.35.38,1.59.12,1.22,1.12,3.67v.11l1,3.44.45,1.17m.7-62.7.14-.2L44.6,67m-.25,10.52.72-1.73.31-2.45L46,72m-2.77,6.06.21,0,.18-1.06.55,0,.28.92.28-.39.37.39L46.61,75M42.7,73.73l0,.76-.54,1.87-.27,1.58L42,79.06l.85-1.17.41.18.06-3.58.34-1.36.37-.26.23-.73m-.18-4.06.28-.38M39.51,77.76l-.28,1,.08.13-.1.63M40,76v.65l-.34,2m0,0L40,77.07l-.23.73v-.55l-.09.53-.11,0m2-7.28-.78,2.7-.32,1.9L40,76m3-3.63-.21,0,.09-1.18.43-1.23.43-.59.12-.74.2-.51m-1.27,4.25-.07.43-.34.7-.77.74-.23.72-.14-1.11m0,0-.59,2.84.19.14-.07.43-1.06,2.43.1-.64-.18.41,0-.76m2.86-13L42,67.3l-.28,1-.25.83.1,0-.34,1.36.23-.07M43,72.37l-.3,1.15,0,.21M37.5,97.35l.06-1-.06,1m-.06-.89,0,.11.08.78m.52-9.5L38,87.52l-.16,1.6M38,97.44l0-.11.16-.3,0,.44m0-12.85.09-.53,0,.87-.21,1.92,0,.76.63-5,.2-1.82.19-1.16.13-.09m10.64-30.1-1.38,2.38m-4.33,9.5-.82,2.26m35.9-46.19-.51.46m1-1,2-1.19-.37.26m0,0,.24-.17-2.35,1.67m-.93.38.22-.07,1.24-.88m66.69,63.43.81,1.66.15.38L146.87,84m0,0,1.09.31m0,0,1.82-2.12m0,0,1.18.2.52,1.11,2.5.3.11-.73,1.92.33-.1.66m0,0c-.87.19.82.07.82.07m0,0,.09-.55m0,0,.94-.29m0,0,1.1,1.08m0,0,.51.34m0,0,2-1.89m0,0,.27-1.23m0,0-.33-.31m0,0,1.07,0m0,0,.06-.69m0,0,.63.43m0,0-.36,2.87m0,0,.65.3.2.67m0,0-.15.93m0,0,.73-.19m0,0,.2-.77.17-1,.51-.46.37.39.62-1.74,1.08-1.24h.65L169.71,74l.64.1,1.73-1.23"/><path id="path3180" class="cls-5" d="M177.31,82.76l-3.56-3.85-2.42-.52-.71-.7L170,78.87l-1.49-.48M194.92,64l.32.71M180.6,75.27l2.56,1.63-.08,1.73,3.47-3.77,7.87-1.5.63-3-.67-1.2L190.43,68l-2.11-4.28m5.53-24.32,2.28.05,1.3,1.31.14-.19.3.81m3.46,7.23-.28-.92-4.84-3.54m-18.05-4.69-1.73-.07M175.86,37l-3.16-1.3-.67.1m7.42,3.11-1.64-1.26-1.18-.09-.77-.56M188,26.12l.78-.09M157,19.57l-.21,0m.69-.21-.48.25m-.21,0h-.65m0,0,.26.37-.58.23m4.34.08-2.68-.89m-1.66.81-.36.81-2.24-.27m-2.2-2.44.9-.17,2.65.44,1.57,1M62.75,161.82l.56.54m.28.26,2.7,2.74m-5-5.09-.09-.13,1,1.15.56.53M47.64,134.66l1.07,2.69M50.4,137,50,136l-.12-.56-.68-1.1-1.52-2,0,.31-.83-1.55-.33,0m0-.33,0,.33,1.16,3.46m-4-4.26.06.34.68,1.74,2,4.47.72,1.54.54,1.29L48.2,141l1.43,2.53,2.95,5.07.16.36,2.2,3.09.15.35L56,153.6,57.05,155l.81,1,1.33,1.75.18.25m81.37-10.52-.28-.27m0-.44,0,.44m.28.27.68.44.55-.67.78-.09m24.65-26.64.69-.21m-21.64,15.29.17.24m-5.39,2.9-.88.07m8.36,4.68.12-1.39m9.94-20.75v0ZM139.61,140l.74-1.18m-.16,7.38.23.58m-.08-19.5-4.69.08m18.49,2-.48,1.56m-22.09,6.38-.43,2.55m12,5.28-1.55.18-1.35.86m24.68-24.9,2.53-.77m-20.78,15.32,2.81.8,2.17-1.26m-6.86-2.58,0,1.75,1.68,1.05m-7.71-7.84.38.93,2.74-.73m8.83-2-.09.53,3.72,1.82-.18,1.06m-2.54,6,.31-1.15,1.11-.79,0-1.75.67-.75m-4.23,5.7.2,3.3-.51,1.77-.41.47-1-.28-.85,1.16.83.9.63.11.23-.72,1.25.32m-7,3.49.44,0,.67-.76-.77-1.22m-1.86-6.41,1.46-1.49,3.93-1.41m-6.28-8.57,1.26.32,1.06,3.34,2.07,2m-13,3.25-.19,1.16.77,1.22-.36,2.12m6.76-12.9-3.69-.08-1.18,5.68-1.48-.25m6.75-5.83-1.93-2.72,1.07-5,3.18.53.69-3.47M139.61,140l-1.33.1L136,138.93l-1.92,1.74-2.07,0m3.78-13.3-2.19-.58m8.29,1.18,2.7.78,1.64-1.35,1.59-.39.48-.9,2.42-.13,0-1.1,5-.78m3.44-6.17.18,2.76m5.46.59-.71-.33-1,.59-2.35-.94h-2l-.61,1-.09,1.84,1.39,2.74-.64,1.85-1.2.67,0,.86-1-2.14,1-2-1.38-.23-1.11-1.82.91-1.48.92-.28.09-2.49.73-.42-.27-1m-7.62-1.29,0,1.2-.87,1.27.72,1.53,1.32-.1-.46,2.1-1.25-.32L147,118.59l-.87.62L145,118.8l-1-.6.13-.75-1.75,0-.28-.92-3,.15.35-1.47-.21-.68m-8.19,25.29-.61,2.94m0,0-1.4.53-1.35-.34-1.13-.41-.35-1.15-1,.71m7.08-9-.63,3.05m1.81-9.38-1.68-.4-.61-.86-7.11-1.1-.83-.9h-2.61M172,96.78l1.33-.75,1.6.81,2.92-1.14,1.9.32,4.89-4.4-1.38-.23-4.9-3.22-.47-1.06m-23.72,15.37-.62.44m8.17-2-.46,2.1m1.54-3.33L161.66,101m-8.16,1.89-.71,1.62m10.63-10.72,1.61-.5.49.89.43.12m-10.53,10.11L156,104l-.35-1.8M153.91,114l3.05,2.59m5.82-22.21,1,3.11-.13,1.39-.9.83M165,93.33l-1.61.49L161.81,95l-2.08.08-1.62-.71-.6.34m-4.57,12.83-.31,3.11,1.28,3.37-3,0m2.07-8.36v1.85l.53.09,2.21-2.13-.6-.32.34-.7-.92-.37-.57.77-1-.5v1.31m4.5,12-.47-1.06,2,.88.14.46m5.26-33.08-.5,2.32-1.41,0-.39,1,1,.39,1.32,1.85.69,2.41L166,93v1.31l1.64.6,1.48,1.56,2.17.69.72-.42m-24.7-14.85.17.25-.53,1.87,1.16.2-.21.62,1.67,1-.21.62,1.78,1.71-.06,1,1.17.85.64,2,1,.7,2-.31,1.79,2.26-.51,1.77.75.67-2.47,1.76-1.26,3.6,2-.32,5.29.9,5,4.21-.14.85,2.11,2.31m-29,4.14-.37-1,.7-3.47-2.91-.82M150.86,114l-1.17,1.11.12,1.22M110.75,82.08l-.34,0m-.67.1-.7-1m16.73,24.06-1.33.11M112.16,82.1l.52-2.42M126,103.27l-1.17.46-.09,1.18-.54,0M111.26,75.85l0,1.64-.56,4.59m11.82,8.64,2.38.73-.22,1.92L121.65,93m-6.9-16.52-1,1.36h-.55l-.53,1.87m-3-4.1-.36.81.52.2L109,81.24m24.4,2.5-2.21,2.13.45,3.78,1.41,2-.22,1.92-2.52-1.19L128.23,92m8.22,1-1.68,4.83-3,2.22-.93,2.89-2.38,1.23-.25-1.13-1.76.79-.92-1-1.45.85M125,91.45l3.19.43-.39,1.67,1.84.1.17.9-1.24,1.53.94.92-.22,1.27L128.3,100l-.53-.74-.51.46-.83-.25-.38-.94-.46.79L124.1,99l.28,2.23-.7-.34-.77.64m7.51-22.47-3.81,5.13-.67.1L125.18,83l-1.38.42L122,84.73l-.85,1.82m15.65,22.68L136,109l-.59,1.53-2.89-.27-.92-1.68-.27-2.22-5.59-1.06M109.5,74v-.11m-.1.64.09-.53m.35,1.14-.44-.61m6-.84,1.45-2.8,2.44-.24m-5.9,2.7.26-.93.78-.09m-1,1-1.54.07-.65.65-1.68-.39m1.34.44-.37.92.74.78m20.92-2.67-.11-1.32L136,68.6l1.78-5.36-.86-2L137,59M114.46,72.36l1,1.36v1.86l-.69.86m-4.9-1.27-.18.41m9.65-4.9,1.3.66.56,1.18,1.49-.4,2.8,1.45,1.85-.67,2.77,1,2.09-.74.49,2.26.68.44-.3,1.15-1.5.51-1.13,1.55m-27.83,3.57.32,0m.34-.7-.34.7m1.76-5.91,0,1-1.72,2.44.35,1.8M93.06,75.28l-2.46,2.3m14.31-2.81-.24,2M94,77.29l-.21-2-1.57.27m4.59.56L96,75.88l.19.8-.55.67-.6-.32-.86.61L94,77.29M88.87,73.7l1.5-1.17,1.83.1.58,1.73-.53,1.21m3.08,1.72.07.89-.67.75,1.5,1.45-.63,2.4M97,73.43l-.46.8.4.17-.07,1.73m7.92-.51-.61-.86-2.3,0-.44-.62M175,96.86l-1.7,1.67m0,0-1,6.14.64,1.42m-20.46-14.9-3.09-1.06-.51.46-1.46-.36-1.73.58-.8-.46-1.13.89-2.78-.9-.85-.8m3.36-8.25-1.51,1.16h-.65m-5.72,1.65,1.6-.5m0,8.39.06-1-3-.29-1.1,2m2.44-8.62-.34-.61-1.78.25-.26-1.68-1.71-2.14.53-.56,2.44.41m5.64,9.77-.86-.69-1.7,1,0,1.52m3.8-8.94-1.73-.07.14.45-1,.92-1.5-.15m-27.61-9.89-.19-.14M89.76,68.4l.11-.63m6,1.67.18-.4m-6.32-.64-.46.14m9.6-23.31,5.83,1m-3.93,27.1-1.11.14M96.08,69l.49.95m3.12,3.47.23-.73h-.66m-6.38-7.94L92.7,66.5M108.6,51l5.31,5.91m-4.36,16.79-4.46-.65m-12-4.31-.11.63.58-.23.34.6m0,0,.62-.44,1.39.13m9.16-.08L107,68l.6.32.21-.62,2.16-.51,1,.29m-11.79,5.3-.78.74-.54-.64-.92.28m-9.73-3L88,69.4l1.45-.19-.11-.67m15.89,4.54-.28,1.69M103,65.31l.55-1.32-.26-.37,2.75-13,2.54.43-4.09-4.17M103,65.31,97.47,64l-.18.41-1.91-.32-.4.47-.58-1.07-1.21,1.32m-6.78.81,2.19-.07,1.48.91-.79.19-1-.71L86,66.45M96.57,70l.35,1.15-.53.56.55,0,.2,1.35-.17.4m-4.38-6.94.75,1.32-.26.94-5.33-1.34-2.1.19m7.54-2.75L91,61.31l-2.68-.23-.55.66m13.68,12.44-.61-.86.9-1.48-.1-.67,1.73-.58,1.06-1.78.67.55M89.62,54.44l.56-.77,5.08.86.84-2.37,1.73-.57,1.49-3.67,4.45.75,1.63-3.86L110,43.62m79.19,21.67.12-.09m-4.9-9,.39.29m7.83,7.74.78-.08m1.55-.17.32.7M180.6,75.27l2.56,1.63-.08,1.73,3.47-3.77,7.87-1.5.63-3-.67-1.2L190.43,68l-2.11-4.28m2.45,10.65-.11.63,1.58,3.54M183.31,56l-.54,1.19,1.93,1.11m9.75,5.25,1-.6.38,1.59m-18,20.8-1.72-.18,0-.87,1.14-1.55,1-.15m2.33-7.34-1.67-.39-.22,1.27-.6.33m16.27-7.37.22-1.92.56-.13-.33-1.25.57-.12m-10.29-9.36.18.25m-7.45,30.53-.56-1.19,1.07-1.23m-8.67-18.64-5.22-.91m3.08-11.78-.21.61M152.07,63l9.53,1.62.27-.29,0,.34,2.54.43M167,53.27l.19.79M150.14,66.75l-.81,6.07-1.73-.08-2.44,4.16,1,.5.28,2.87-2,.1-1,.92M153,50.9l.24,1.13-1.51,14.12-1.59-.27,0,.87-5.81-4.25m22.94-8.21,1.55.48.91-.83,1,0m-61.21,20,0-.21m23.88,1.1-.78-.57m-13.4-12.17,2.51,0,3-1.77m-8.14,7.55-5.59-.4m13.73-7.15,7.79-2.93m-21.2,10.13v1.86l1,1-.62.44.85.8.86,0,.09,1.43m20.86,6.69-.81-1,.41-2.43-.61-1.52m-16.79-7,1.45-1.5,1.16-4.26-1.54.06.24-1.37-1.91-1-2.13-2.86m30.42,5.58-5.62-4.11-3,.91-.91-1-2.24-.92-.33-1.25-1.93-.87-.77-2.53.83-.4.64-1.85-.09-3.29m-17-11.26v-.11M110,43.62l3.41-.84.17-1.06,1.47-.3,2.22.38.63-3.7-.46-.52m67,18.62L183.31,56m-5-14.34-.79.19.82,1.56-.19.51L180,46.86l1.22.53-.73,2.38,1,1.59,1.76,1.17.6,1v1.2l.42.07.11.67.72.89m-17.2-5.15-.58-.28.34-1.33.54.12m-.07-2.59.46.2a.47.47,0,0,1,.07.43l-.17.53c-.09.22-.17.34-.34.39l-.76-.06M173.05,51l4.73,3.21,1.28,1.42,3.83,1.09m-14.55-7L168,51.26l0,.54-.48,1.56m-1.46-2.3.93,2.21m-13.26-4.64-.78,2,.07.23m17.68,3,.1,0,.66-.65L170,51.6l3-.58-.79-1.76-2.47,1.1-1.34-.77-.18-.77m-37.09-1.94,0-2.72-.84-.79-.63-2.07,1.34-.86.63-2.4.74-.53m-1.52,9.65-.09-.12,1.53-.72.45-1.34,2.08-.74.16-1m94.73,58.59.1,0,0-.44.16.35,0,1.52.14-.2,0-.86m-.68-5.67.13-.74m.07,6,.11,0M137.16,92l-.71,1m94.2-.08-.06.32M228,76.32l0,.44m-.28-.92.28.92m2.53,18.5,0,.44,0-.33,0,.55m-.27-7.45.07.23-.07-.23m-1-5.18,0-1.09.11.67,0-.55m1.25,10,0,.55M228,76.32l.16.35.12,1.87.16.36m1.5,5.91.11.67m.54,7.72,0,.1.09,1.43,0-.33,0,.86M228.44,78.9l.15,1,.22,0,.43,3.23.09.12m-.28-3.53.11.67.28.92.5,3.46m.44,8.35L230.16,90V88.66l.11,0M228,75.22l.33,1.26,0-.11.09.78.21.69.15.35-.12-.56.14.46,0,.44.21.69.1.67-.09-.13m.33,2.56,0-.44.09.13.27,1.57.39,2.89.22,2.54.05.34V88.7l-.07-.23m-2.23-11.92.21.69.11,0-.51-2.16.09.12-.12-.56.23.58-.11-.67.12.57-.19-1.45.2.79.08.13L228.5,76l0,.21m1.14,19.68.1-.64m-1.93-19.48v.1M217.18,61.75l3,3.66,0-.44,1.1.62m1.55.48.35-.16L223,64.8l.08-1.08m-1.87,3.93.71.34-.67-2.51,0-.21.95,2.12h1.2l-.7-1.65-.87-.69,0,1.52m2.56-1-.14-.46.25.48.46,1.16.12-.08L225.5,68l.38,1.59.14,1.11.44,1.92.26-.28.39,1.59.26.37.1,1.33.3.16m-4.71-12,.35.5v-.65l.16.35.12.56,0-.21.25.48,0,.55.47.4.18.9.3.82-.39-.29,0,1,.89,4.4-.37-.39.59,2.93-.07.42M216,61.55l-.18.41.32,1.36,2.32,2.35.74.13,1,1.36,1,.5m8.51,27.56.08-2.38-.27-3.53-.42-2L229,85.09l0,.21-.77-3.83.12-.08-.31-2,.19.14,0-1.09.09.12m-4.11-2.76-.54-2.6-.42-.72-.16-1-.42-.72.15-.85-.6-1L222,67.67l.71,1,.05-.31.49,1.6,1.18.75v1.85l.44,1.27-.12-1.21h.11l1.06,4-.17-.24,0,.44m-16.55-7.7-.51-.2-.39,1m2.65-9.25-.61,3-.81.3L209,63.3l-.42,1.24.1.67.69.44.07.88.67.55.73,2.09-1.62-.06m-4.71-9.51.07.23-1.91.33-3.49-1.24m2.12,7.43.06-1.62,1.25-.33,0-.76-.7-.34-.28-1.57-1-.6-1.48-2.21,0-.21m15.25-14.84.21,0L216,45.55l-.66-1.21m.73,16.9.57-.13.54.64m-9.59-18.61.18.25m-4.73-10,.57.53.51.19-.05-.33.82.9m10.18,25.46,1,1.15,0,.31m-9.8-27.68.81.36-.18-.25m-1.83.56-.07-.88m.53,5.86.5-.35.6.32-.44-.62-1.18-2,1.09.62.16-.3L205,35.41l.23-.07-.53-.75.34-.05.63.76,1.46,1,1.2,1.29L210,40l1,.49,1.14,1,1.58,2.22.73.24m-6.52-.13,0-.21-.51-.85-.1-.67-1.5-2.1-.39-.28M201.73,45h-.11m-1.18-1.4-.28-.27m1.59,1.58-.32-.06m1.27-.43-.16.29m-3-1.38h.65M198,41.41l.22.58.32.06,1,1.25m-7.44-5.61,1.78,1.72m9.36,5.82.37.39Zm.13-4,1.27.87m6.46,15.24-.18,1.06m-17-19,2.28.06,1.3,1.31.14-.19.3.81m-1.66,2.77-1-1.59-.51-.2m6.25,3.56.07-.42.73.23,0-.76m0-.1-.2-.8.39.29.3-.5.46.52m-1.79,1.54.78.57.67,1.2.1,1.33m.92-2.9L204,46l.86.69.8-.19m-5.17-2.94.05.33.6.32-.15-1,.81-.95m1.37,2.84-1,.26.24.48,1,.28m1.23-4,2.12.35.86.69m-5.84-.87-.12-.57.35-.16,1.5.8-.4-.83.26-.28m-.8,3.45,1.2.64.67-.75-.92-.38m0,0-.72-.88.12.56-1.18-.74.34-.71-.3-.15m-.42,6.35-.28-.92-4.84-3.54m14.87,8.61-.2,1.17-2.11-.36.28.92.4.17.14,1.12,1.48,1.55m-16.41-15L193.42,42,193,40.89l-.09-.13m4.48,9.58-.62-1.52-.74-.13-.46-.51M210.89,58.4l.3.81-.25,1.48M213,56.15l.81,1-.19.52-.5-.31.88,1.89.13-.08.93.92m-7.25-9.94-1.82.46-.09.52.86,1.35-.26.93.31.71-.95-.16.77,1.22-.58.23.37,1.69-2,.76,0,1.74m-5.29-.89.57-1.43-.23-.58-.94-.27L197.7,54l.21-.62-.49-.3-.21-.69.35-.15-.22-1.89,1.5.8.14-.85,1-.37-.12-1.22.64-.54,2.29,1.26.51-.46.37.39.52-1.77.82.91.88,1.89.71-1,1.34.44m-2.52-10.22-.1,0,.12-.09m7.31,16,.22.59-.5-1.51-.67-.54-.65-1.31-1.52-.69L209,50.89,207.63,50l.39-.37-.93-1.57-.83-.25-.65-1.31.12-1.39,1.13.4-.17-.9.74.13.49-1m-32,.69.26.37m11.53-8.29,1.92-.43,1.08.72m-1.11,4.61-1.89-4.9m-9.54,3-1.73-.07M177.11,29,177,30.68l.7.34m.61,10.55,1.13.41.68,1.1m-6.5,5.65,1.29-.55V45.57l1.22-.77m3.28-5.87,1.76,1.17.55-.67m-3.6,0,1.64.61-.35-1.15M175.86,37l-3.16-1.3-.67.1m17.56,5.59-.53-.09-1.79-1.61-1.4.52M177.74,31l.25.48,1.51.69.72.88-.44,0,.88.58m-1.21,5.24-1.64-1.26-1.18-.09-.77-.56m.22,7.66.48-.25,1.57.37.35.5.46-.14M180.5,43l-.17-.9-1.18-.75.37-.26-1.36-1.65m.33-10.28h.1l-.21,0m0,12.51,1.83,1.4,1.68-.91.57.53-.23.72,1.07.73m-9.08-5.57,1.4.13,1.13,1.06.26,1,1.37.89m14.53-.92-1.59-.92-.35.16.58.42-.6-.32-.65.66.38.93-1-.28m5.93,6.77-.93-.92-2-.89-.45-.51-1.63-.06-.56.78-.76,0m-13.23-2.24-2.67.31m-1,4.62,1.4-.52m-.4-4.1-.88.07-3.25-.76.09.77L168,45m37.1-13.39.86.69,1.37,1.54-.26-.37.46.51M200,31.85l.19.14-.33-.6,1.07.73m0,0,.46-.14L203,33.34m3.81.64-.26-.37-.83-.9-1-1.49.37.39m-.13,2-.26-1,.79.46.65.65.09.13m-17.76-4.42-.28-.27m-.81-3,.32.06m-.13,2.7.62.21m-.49-2.91.35-.16m8.5,2.53L199,30.8m-4.78-2.65.42.07.11-.64m-7.2,1.4-.88-.59m3-2.87,1.16.2m0,0,.95.81.35.5M188,26.12l.78-.09m5.94,1.55.27-.28.24.48,1.27.87M188.82,26l1-.15,0-.34M192.13,27l.73.23-.27-.37.65.65.57-.12.42.73M199,30.8l1,1.05m-11.57-2.39.12.56-1.15-.3m-.75-1.33.47-.24-.52-.75.86,0-.9-.48,0-.21-.51-.19L186,26.2l1.41,0m-1.6,3-.19-.14m.32.05-.13.09m-4.05-1.12-.64-.11m2.17,1.35-1.53-1.24m-4.64.41,0,.44m4-1-.37-.39-.37.27-1-.5m8.09,2.35-.07.42-1.46-1m-.32-.05-.16.3L184.5,29l-.3.49L183,28.75l.23.59m-4.87-.17-1.3-.66m2.26-1.14-1.36,1,.51.85m-54.13-.56-1.66-1.15m-8.86.25,2.22.37.44.62-1.16.46-1,1.57h-.65l.3.82-1.69,2.22m58.1-5.53.14.46m0,.1,0-.1m-.25-.48.11,0m-21.89,3.92.38.28-.39.37m2.81.8-2.21.17m7.33,4.94-.14.2m-.84-2.1-.25.17m.84,2.1,0,.32m1.7,2.79.22,0m-2.75-5,.06.34m1.72,4,.3.16m-1.48-3.51.43.07m-.34,1.35.05.34m.93.92.16.35m.21.69.16.36m10.56-9.65-.16.3m-9.57,9.59.53.09m-1.92-2.17,0,.21M170.3,29.32l.28.27M159,28.06l-.42-.07m1.12,15.22.39.28m-2.59-16.23-1,.16m1-.16,1.08.73m11.75,1.33.19-.51m-.65,1.31-.69.21v.55m.68-.76.74.12v-.65m-12.39,5.64-1.25-.32-.81.29m12.07-7.65,2.06.68m-11.7,2.67.46-1.14,1.07.28-1.12-2m9.14-.63.09.12M151.91,35l-.07-.88-.56-.53.92-.93-.72-.89.4-.47m-3.89,5,.28.27,1.17-1.11L148.67,33l-.21,0m.93,2.22,4.16-.16,2.07.67.4-.47.46.51-.78.74m-6.56-10.15,1.68-.26,1.57,1m-.76-.67.85-.51-.21-.69.71-.32m-3.79,3.72,1.08.07,1.09-1.34,1.28-.44,1.94.77,2-.21,1.57,1.68.05,1.64,1.83.75m-11-3,.21,0L150.58,30l-.18.4,1.56.48.15,1,2.93.71,1.91-.33,1.81.85m-9.42-8,.11,0,1.64,0,1,.6m-7,1.75-1.13.24-.46.79-2.1-.46m6.21.62.61.86-.6.34m.05,1.64.87.69m-1.93.43.74-1.18.76,0L147.7,31l.43.07-.57-.53.43-.58-4.18-1,.33,1.26,2.41,2.47Zm-13.09-3.73h.11m1,3.22.55,0m.87-1.27,0-.21m10.05-4.72-.08-.13m-8.67-.26,0-.21m9.71,10.78h.55M136,30.27l-.16-.36m-9.56-.74-.3-.16Zm1.78.41-1.78-.41m8.33-7.41-.39.37M126,29l-1.67-.4m18.13-4.22.92.37.5-.35,1.55.48.51.84m-4.4,2.2-.19-.79.47-.25-1.44-.46-.14-.46-2.05-.13m-5.57-4.43h-.1m2.13.9-1-.16-.23-.58m14.62,3-2.28.59m2.62,7.74-.52-.2-.47.9m.41,2.68.11,0M134,26.24l-.23-.58-.9.17,1.63-1.25,1.87-.12,1.21.53m7,1.94h.55l0-.87.9-.17,1.54.58,1.55-.17M137.6,25l.37.39.48-.24.81.35,1.24-.22.79.46L141.2,25l1.29-.54-1-.94-.22-.59m-7.54,5.92.29-.39-.81-.36-.07-.88.81-.3-.25-.47,1.29.11.85-.51.4.83.57-.78.9.48.55-.67-1-.39.19-.51m-2.12-.36,1.23-1.43-1.82-.85.09-.53m7.08,5.12.92.37,2-.31,1.59,1.57H149m-1.51-4.61.74.78.57-.12.56.53m-24.6-10.37-1.27.44,1.43.57m31.79-.61-.16.3m.53.74.19.14m6.88,8.89,0,.11M157,19.57l-.21,0m.09-3.14.34-.05M161.3,22l0,.21m-3.75-2.92-.48.25m-.21,0h-.65M161.3,22l-.67-.55m-4-3.61.29-.38m7.16,7.2,0,.54M161.5,24l-.86,0m-3.73-7.6,0,1.1m-4.39,2.74-.08-.78m0,0-1.36-.34M160.64,24l-.23.72m1.85-2-1-.5m-2.11,2.15,1.26.32m3.7.63,1.11.51m-9.05-6.32.26.37-.58.23m6.41,2.61-1.32.1m0,0L161.5,24m-6.17-.83,1.95.66m-1.95-.66h-2m7.26-1.72-.44-1.27m-4.72-12,.6.32,0,.44.83-.4m.58,10.76-.85-1.45m2.55-4.14-2.42,1.44m.49,8.69,1.87.53m1-4.18-2.68-.89m-.85-1.45L154.85,17l-.89.07M161.5,24h2l.65.66m1.11,1.16.53.75,1.82.19.54.64m-12.26-7.3-.36.81-2.24-.27m-2.2-2.44.9-.17,2.65.44,1.57,1M156.1,9l0,.44.9.48-.41.48,1.58,2.22-.37.27,1.37.88m-4.06-5.58-.88.06-.53.57-1.47-.36L151.59,8l-.46.14,1.9,1,.47,1.72m-2.37-2.69-.37.26M153,24.87l.84-.51-1-2,.78-.74-.85-1.45-2.86-.48m-11-2.52,1.43.57m-5.66,3.83-.14.2m.35-.81-.72-.89-1.71-.18m11.66,2.52.2-1.82-.5-.3.39-.37m-11.68,1.51L131.47,20m2,1.54-.07-.23-.78.08m18.11-13,0,.11-1.15-.3-.16.29-.74-.12-1,.91H147l-.92.94.27.37-1.08-.08-.73.43-.3,1.14.48.41-.59.23v.76l-.57.12-.44.69-.74-.13m-1.15,8.73-.14-.45m8.84-2.75-.42-.08m-14.74,2.19.09-1.18.44-.69,1.24-.22-.26-.37.88-.73-.71-.33m4.64,4.16,3.38-.08,1.22.53.11.67.38-.37.83.25.46.51m7.79-15.78.21,0m-.11,0-.21,0m-111.8,110-.63-.11m1.93,8.5,1.13.41m-.27-2.88.4.18.69,2.4m-5.48-13.34.81,1,.44,1.92.33,1.91m.18,3.41,1.29,2.06.48,2.92m-1.94-5.23.26.37m.38-3.53.44.62.65,2.61.61.22.77,3.83,0,1.52m.82-.3-.38,1.57.21,2.65m-6-22.57.64.1.15,1.66.6,1.63.22,3.19m-.87,3.23-.59-4.24.53-.56m-.72,5.54-.15-1.66.42.73.35,1.14-.19-1.44.21,0,1.23,3,.44.62M37.66,99l.21,2.64.32,5.18.12,1.21.19,1.45.17,1.55,0,.34m-1.22-14,0,1.74.17.25.13-.74m.41-1.13.06,2.19.12,1.22.18.9.28.26.49,1.61.46.51.18,2.11.32,2,.1,0m-2.6-9.7L38,97.44m.49,12.6L39,112.4l.19.8.26,1.68,1,4,.16.35.38,1.59.12,1.22,1.13,3.67,0,.11,1,3.44.45,1.17m.7-62.7.14-.2L44.6,67m-.25,10.52.72-1.73.31-2.45L46,72m-2.77,6.06.21,0,.18-1.06.55,0,.28.92.28-.39.37.39L46.61,75M42.7,73.73l0,.76-.54,1.87-.27,1.58L42,79.06l.85-1.17.41.18.06-3.58.34-1.36.37-.26.23-.73m-.18-4.06.28-.38M39.51,77.76l-.28,1,.08.13-.1.63M40,76v.65l-.34,2m0,0L40,77.07l-.23.73v-.55l-.09.53-.11,0m2-7.28-.78,2.7-.32,1.9L40,76m3-3.63-.21,0,.09-1.18.43-1.23.43-.58.12-.75.2-.51m-1.27,4.25-.07.43-.34.7-.77.74-.23.72-.14-1.11m0,0-.59,2.84.19.14-.07.43-1.06,2.43.1-.63-.17.4v-.76m2.86-13L42,67.3l-.28,1-.25.83.1,0-.34,1.36.23-.07M43,72.37l-.3,1.15,0,.21M37.5,97.35l.06-1-.06,1m-.06-.89,0,.11.08.78m.52-9.5L38,87.52l-.16,1.6M38,97.44l0-.11.16-.3,0,.44m0-12.85.09-.53,0,.87-.21,1.92,0,.76.63-5,.2-1.82.19-1.16.13-.09m10.64-30.1-1.38,2.38m-4.33,9.5-.82,2.26m35.9-46.19-.51.46m1-1,2-1.19-.37.26m0,0,.24-.17-2.35,1.67m-.93.38.23-.07,1.23-.88m66.69,63.43.81,1.66.15.38L146.87,84m0,0,1.09.31m0,0,1.83-2.12m0,0,1.17.2.52,1.11,2.5.3.11-.73,1.92.33-.1.66m0,0c-.87.19.82.07.82.07m0,0,.09-.55m0,0,.94-.29m0,0,1.1,1.08m0,0,.51.34m0,0,2-1.89m0,0,.27-1.23m0,0-.33-.31m0,0,1.07,0m0,0,.06-.69m0,0,.63.43m0,0-.36,2.87m0,0,.65.3.2.67m0,0-.15.94m0,0,.73-.2m0,0,.2-.77.17-1,.51-.46.37.39.62-1.74,1.08-1.24h.65L169.71,74l.64.1,1.73-1.23"/><path class="cls-6" d="M252.42,166.85a76.73,76.73,0,0,0-9.3-18.52c-5.21-7.85-11.54-15.07-17.82-22.08,8.1,13,17.85,27.13,21.72,42.12a29.68,29.68,0,0,1,.89,9,14.77,14.77,0,0,1-2.62,7.68c-3.06,4.29-8.85,6.25-14.86,6.81a70.55,70.55,0,0,1-18.74-1.17,172.93,172.93,0,0,1-29.77-8.58c-2.48-.92-4.95-1.9-7.41-2.9a363,363,0,0,1-35.49-17c-5.79-3.13-11.49-6.43-17.13-9.82s-11.22-6.9-16.72-10.53q-16.53-10.81-32.1-23a365.67,365.67,0,0,1-29.7-25.84q-3.91-3.84-7.7-7.84A167,167,0,0,1,18.1,63.49,71.54,71.54,0,0,1,9.58,46.77C7.71,41,7.2,35,9.93,30.46c4.88-8.06,15.19-9.29,23.71-9.19a239.34,239.34,0,0,1,35.05,3c-8.17-1.36-16-5-24.2-6.44a77,77,0,0,0-20.69-1.2,35.93,35.93,0,0,0-10.63,2.63A21.6,21.6,0,0,0,4,26.56,22,22,0,0,0,.2,37.86,37.05,37.05,0,0,0,1.35,49.07,77.82,77.82,0,0,0,9.61,68.7,150.94,150.94,0,0,0,21.24,85.92q6.33,8.19,13.35,15.68l.23.23a308.4,308.4,0,0,0,29.69,27.72A391.83,391.83,0,0,0,97.4,153.72c5.7,3.7,11.47,7.3,17.35,10.75s11.85,6.69,17.9,9.82a316.62,316.62,0,0,0,34.26,15.17c1.08.4,2.18.79,3.27,1.18q9.67,3.47,19.69,6a154.16,154.16,0,0,0,20.42,3.83,78.35,78.35,0,0,0,21.29-.2,37.33,37.33,0,0,0,10.72-3.4,22,22,0,0,0,8.87-7.94,21.57,21.57,0,0,0,3.06-11.32A35.42,35.42,0,0,0,252.42,166.85Z"/><path class="cls-2" d="M254.19,165.08a77.09,77.09,0,0,0-9.3-18.52,171.51,171.51,0,0,0-17.76-22.12c-.28,1-.58,1.93-.9,2.89q2,2.46,4,5a142.2,142.2,0,0,1,11.08,16.45,70,70,0,0,1,7.49,17.83,30,30,0,0,1,.89,9,14.77,14.77,0,0,1-2.62,7.68c-3.06,4.29-8.85,6.26-14.86,6.81A70.55,70.55,0,0,1,213.46,189a172.89,172.89,0,0,1-29.77-8.57c-2.48-.93-4.95-1.91-7.41-2.91a363,363,0,0,1-35.49-17c-5.79-3.13-11.49-6.43-17.13-9.82s-11.22-6.9-16.72-10.53q-16.53-10.81-32.1-23a365.67,365.67,0,0,1-29.7-25.84q-3.91-3.84-7.7-7.84A167,167,0,0,1,19.87,61.72,71.54,71.54,0,0,1,11.35,45C9.48,39.26,9,33.18,11.7,28.69a14.65,14.65,0,0,1,6-5.45,29.76,29.76,0,0,1,8.64-2.77,70.18,70.18,0,0,1,19.33-.21,142.43,142.43,0,0,1,19.49,3.63c1.1.29,2.21.57,3.3.87.81-.73,1.63-1.45,2.46-2.15A166.88,166.88,0,0,0,46.26,16a76.62,76.62,0,0,0-20.7-1.19,35.62,35.62,0,0,0-10.62,2.62,21.54,21.54,0,0,0-9.19,7.32A22,22,0,0,0,2,36.09,37.05,37.05,0,0,0,3.12,47.3a77.45,77.45,0,0,0,8.26,19.63A150.06,150.06,0,0,0,23,84.15q6.33,8.19,13.35,15.68l.23.23a307.23,307.23,0,0,0,29.69,27.72A389.62,389.62,0,0,0,99.17,152c5.7,3.71,11.47,7.31,17.35,10.75s11.85,6.69,17.9,9.82a316.62,316.62,0,0,0,34.26,15.17c1.08.4,2.18.79,3.27,1.18q9.68,3.47,19.69,6a154.16,154.16,0,0,0,20.42,3.83,78.35,78.35,0,0,0,21.29-.2,37,37,0,0,0,10.72-3.4,22,22,0,0,0,8.87-7.94A21.57,21.57,0,0,0,256,175.87,35.73,35.73,0,0,0,254.19,165.08Z"/><rect class="cls-1" x="45.44" y="96.23" width="6.3" height="11.49" transform="translate(-60.62 73.14) rotate(-49.73)"/><path class="cls-1" d="M30.08,93.26A3,3,0,0,1,29.72,89l3-3.54A3,3,0,0,1,37,85.14l3.49,3-6.87,8.12Z"/><rect class="cls-1" x="23.44" y="94.89" width="37.13" height="3" transform="translate(-58.7 66.15) rotate(-49.74)"/><path class="cls-7" d="M30.77,98.3a3.24,3.24,0,0,1-.06-4.56l6.81-8A3.24,3.24,0,0,1,42,85l11.2,9.49a3.23,3.23,0,0,1,.07,4.56l-6.82,8a3.24,3.24,0,0,1-4.51.68Z"/><path class="cls-8" d="M46.48,107.1l3.41-4L34.12,89.71l-3.41,4a3.24,3.24,0,0,0,.06,4.56L42,107.78A3.24,3.24,0,0,0,46.48,107.1Z"/><rect class="cls-2" x="41.19" y="62.69" width="44.4" height="16.91" transform="translate(-31.87 73.53) rotate(-49.73)"/><rect class="cls-2" x="-1.4" y="112.98" width="44.4" height="16.91" transform="translate(-85.31 58.82) rotate(-49.74)"/><rect class="cls-1" x="56.27" y="80.94" width="3.94" height="3.95" transform="translate(-42.67 73.75) rotate(-49.73)"/><rect class="cls-1" x="60.25" y="76.24" width="3.94" height="3.95" transform="translate(-37.68 75.18) rotate(-49.76)"/><rect class="cls-1" x="64.22" y="71.55" width="3.95" height="3.95" transform="translate(-32.69 76.49) rotate(-49.72)"/><rect class="cls-1" x="68.2" y="66.85" width="3.95" height="3.95" transform="matrix(0.65, -0.76, 0.76, 0.65, -27.7, 77.87)"/><rect class="cls-1" x="72.18" y="62.15" width="3.95" height="3.95" transform="translate(-22.71 79.27) rotate(-49.74)"/><rect class="cls-1" x="76.16" y="57.45" width="3.94" height="3.95" transform="translate(-17.72 80.63) rotate(-49.73)"/><rect class="cls-1" x="70.54" y="52.7" width="3.94" height="3.95" transform="translate(-16.07 74.68) rotate(-49.74)"/><rect class="cls-1" x="66.56" y="57.39" width="3.94" height="3.95" transform="translate(-21.06 73.29) rotate(-49.73)"/><rect class="cls-1" x="62.58" y="62.09" width="3.94" height="3.95" transform="translate(-26.05 71.96) rotate(-49.76)"/><rect class="cls-1" x="58.6" y="66.79" width="3.95" height="3.95" transform="translate(-31.05 70.55) rotate(-49.74)"/><rect class="cls-1" x="54.63" y="71.49" width="3.95" height="3.95" transform="matrix(0.65, -0.76, 0.76, 0.65, -36.04, 69.23)"/><rect class="cls-1" x="50.65" y="76.18" width="3.94" height="3.95" transform="translate(-41.03 67.8) rotate(-49.73)"/><rect class="cls-1" x="46.67" y="80.88" width="3.95" height="3.95" transform="translate(-46.02 66.43) rotate(-49.74)"/><rect class="cls-1" x="52.29" y="85.64" width="3.94" height="3.95" transform="translate(-47.66 72.33) rotate(-49.7)"/><rect class="cls-1" x="13.68" y="131.23" width="3.94" height="3.95" transform="translate(-96.13 59.09) rotate(-49.75)"/><rect class="cls-1" x="17.66" y="126.54" width="3.94" height="3.95" transform="translate(-91.12 60.43) rotate(-49.73)"/><rect class="cls-1" x="21.63" y="121.84" width="3.94" height="3.95" transform="translate(-86.11 61.77) rotate(-49.72)"/><rect class="cls-1" x="25.61" y="117.14" width="3.94" height="3.95" transform="translate(-81.12 63.13) rotate(-49.71)"/><rect class="cls-1" x="29.59" y="112.44" width="3.95" height="3.95" transform="translate(-76.17 64.59) rotate(-49.76)"/><rect class="cls-1" x="33.57" y="107.75" width="3.94" height="3.95" transform="translate(-71.14 65.89) rotate(-49.72)"/><rect class="cls-1" x="27.95" y="102.99" width="3.94" height="3.95" transform="matrix(0.65, -0.76, 0.76, 0.65, -69.54, 60.02)"/><rect class="cls-1" x="23.97" y="107.69" width="3.94" height="3.95" transform="translate(-74.5 58.58) rotate(-49.73)"/><rect class="cls-1" x="19.99" y="112.38" width="3.94" height="3.95" transform="translate(-79.52 57.26) rotate(-49.76)"/><rect class="cls-1" x="16.02" y="117.08" width="3.95" height="3.95" transform="translate(-84.46 55.79) rotate(-49.71)"/><rect class="cls-1" x="12.04" y="121.78" width="3.94" height="3.95" transform="translate(-89.56 54.58) rotate(-49.8)"/><rect class="cls-1" x="8.06" y="126.48" width="3.94" height="3.95" transform="translate(-94.44 53.04) rotate(-49.71)"/><rect class="cls-1" x="4.08" y="131.17" width="3.94" height="3.95" transform="translate(-99.44 51.68) rotate(-49.72)"/><rect class="cls-1" x="9.7" y="135.93" width="3.94" height="3.95" transform="translate(-101.09 57.66) rotate(-49.72)"/></svg>